<svg width="49" height="48" viewBox="0 0 49 48" fill="none" xmlns="http://www.w3.org/2000/svg">
<path fill-rule="evenodd" clip-rule="evenodd" d="M0.23877 14.0039C0.23877 6.28391 6.51686 0 14.2349 0H34.2349C41.9549 0 48.2388 6.27809 48.2388 13.9961V33.9961C48.2388 41.7161 41.9607 48 34.2427 48H14.2427C6.52268 48 0.23877 41.7219 0.23877 34.0039V14.0039ZM40.2388 10C40.2388 8.896 39.3428 8 38.2388 8C37.1348 8 36.2388 8.896 36.2388 10C36.2388 11.104 37.1348 12 38.2388 12C39.3428 12 40.2388 11.104 40.2388 10ZM24.2388 12C30.8568 12 36.2388 17.382 36.2388 24C36.2388 30.618 30.8568 36 24.2388 36C17.6208 36 12.2388 30.618 12.2388 24C12.2388 17.382 17.6208 12 24.2388 12ZM16.2388 24C16.2388 19.5817 19.8205 16 24.2388 16C28.657 16 32.2388 19.5817 32.2388 24C32.2388 28.4183 28.657 32 24.2388 32C19.8205 32 16.2388 28.4183 16.2388 24Z" fill="#1C1C1C"/>
</svg>
