<svg width="267" height="34" viewBox="0 0 267 34" fill="none" xmlns="http://www.w3.org/2000/svg">
<rect x="0.571655" y="0.624451" width="164" height="33" fill="#CF2136"/>
<mask id="mask0" mask-type="alpha" maskUnits="userSpaceOnUse" x="0" y="0" width="165" height="34">
<rect x="0.571655" y="0.624451" width="164" height="33" fill="white"/>
</mask>
<g mask="url(#mask0)">
<path fill-rule="evenodd" clip-rule="evenodd" d="M83.7931 27.473L85.4731 22.703H93.4831L95.1031 27.473H99.9931L91.9831 6.05304H87.1531L79.0531 27.473H83.7931ZM92.2531 19.193H86.7031L89.4931 11.333H89.5531L92.2531 19.193ZM114.903 19.103V27.473H110.193V6.05304H121.743C122.703 6.05304 123.568 6.20804 124.338 6.51804C125.108 6.82804 125.768 7.25304 126.318 7.79304C126.868 8.33304 127.288 8.95804 127.578 9.66804C127.868 10.378 128.013 11.143 128.013 11.963C128.013 13.223 127.748 14.313 127.218 15.233C126.688 16.153 125.823 16.853 124.623 17.333V17.393C125.203 17.553 125.683 17.798 126.063 18.128C126.443 18.458 126.753 18.848 126.993 19.298C127.233 19.748 127.408 20.243 127.518 20.783C127.628 21.323 127.703 21.863 127.743 22.403C127.763 22.743 127.783 23.143 127.803 23.603C127.823 24.063 127.858 24.533 127.908 25.013C127.958 25.493 128.038 25.948 128.148 26.378C128.258 26.808 128.423 27.173 128.643 27.473H123.933C123.673 26.793 123.513 25.983 123.453 25.043C123.393 24.103 123.303 23.203 123.183 22.343C123.023 21.223 122.683 20.403 122.163 19.883C121.643 19.363 120.793 19.103 119.613 19.103H114.903ZM120.063 15.743H114.903V9.71304H120.063C121.143 9.71304 121.953 9.94804 122.493 10.418C123.033 10.888 123.303 11.643 123.303 12.683C123.303 13.763 123.033 14.543 122.493 15.023C121.953 15.503 121.143 15.743 120.063 15.743ZM149.643 10.013V27.473H144.933V10.013H138.513V6.05304H156.063V10.013H149.643Z" fill="white"/>
</g>
<path fill-rule="evenodd" clip-rule="evenodd" d="M230.663 27.098C229.363 27.668 227.883 27.953 226.223 27.953C224.583 27.953 223.108 27.668 221.798 27.098C220.488 26.528 219.383 25.743 218.483 24.743C217.583 23.743 216.893 22.568 216.413 21.218C215.933 19.868 215.693 18.413 215.693 16.853C215.693 15.253 215.933 13.768 216.413 12.398C216.893 11.028 217.583 9.83303 218.483 8.81303C219.383 7.79303 220.488 6.99303 221.798 6.41303C223.108 5.83303 224.583 5.54303 226.223 5.54303C227.883 5.54303 229.363 5.83303 230.663 6.41303C231.963 6.99303 233.063 7.79303 233.963 8.81303C234.863 9.83303 235.553 11.028 236.033 12.398C236.513 13.768 236.753 15.253 236.753 16.853C236.753 18.413 236.513 19.868 236.033 21.218C235.553 22.568 234.863 23.743 233.963 24.743C233.063 25.743 231.963 26.528 230.663 27.098ZM188.453 27.473V23.513H178.013V6.05303H173.303V27.473H188.453ZM204.143 27.473V6.05303H199.433V27.473H204.143ZM226.223 24.023C225.163 24.023 224.263 23.818 223.523 23.408C222.783 22.998 222.183 22.453 221.723 21.773C221.263 21.093 220.928 20.328 220.718 19.478C220.508 18.628 220.403 17.753 220.403 16.853C220.403 15.913 220.508 15.003 220.718 14.123C220.928 13.243 221.263 12.458 221.723 11.768C222.183 11.078 222.783 10.528 223.523 10.118C224.263 9.70803 225.163 9.50303 226.223 9.50303C227.283 9.50303 228.183 9.70803 228.923 10.118C229.663 10.528 230.263 11.078 230.723 11.768C231.183 12.458 231.518 13.243 231.728 14.123C231.938 15.003 232.043 15.913 232.043 16.853C232.043 17.753 231.938 18.628 231.728 19.478C231.518 20.328 231.183 21.093 230.723 21.773C230.263 22.453 229.663 22.998 228.923 23.408C228.183 23.818 227.283 24.023 226.223 24.023ZM252.713 13.133V27.473H248.303V6.05303H252.983L261.923 20.423H261.983V6.05303H266.393V27.473H261.683L252.773 13.133H252.713Z" fill="#1C1C1C"/>
</svg>
