<svg width="27" height="36" viewBox="0 0 27 36" fill="none" xmlns="http://www.w3.org/2000/svg">
<path fill-rule="evenodd" clip-rule="evenodd" d="M7.14551 6.41526L13.5 0L19.8545 6.41526L17.9455 8.3425L14.85 5.21739V25.0967H12.15V5.21739L9.05449 8.3425L7.14551 6.41526ZM0 15.5563C0 13.3144 1.82929 11.4676 4.05 11.4676H8.1V14.1934H4.05C3.28721 14.1934 2.7 14.7863 2.7 15.5563V31.9113C2.7 32.6814 3.28721 33.2742 4.05 33.2742H22.95C23.7128 33.2742 24.3 32.6814 24.3 31.9113V15.5563C24.3 14.7863 23.7128 14.1934 22.95 14.1934H18.9V11.4676H22.95C25.1707 11.4676 27 13.3144 27 15.5563V31.9113C27 34.1532 25.1707 36 22.95 36H4.05C1.82929 36 0 34.1532 0 31.9113V15.5563Z" fill="white"/>
</svg>
