<svg width="49" height="48" viewBox="0 0 49 48" fill="none" xmlns="http://www.w3.org/2000/svg">
<path fill-rule="evenodd" clip-rule="evenodd" d="M5.95306 0H42.5245C45.6753 0 48.2388 2.56343 48.2388 5.71429V42.2857C48.2388 45.4366 45.6753 48 42.5245 48H5.95306C2.8022 48 0.23877 45.4366 0.23877 42.2857V5.71429C0.23877 2.56343 2.8022 0 5.95306 0ZM37.1713 20.9806C37.4376 20.9806 37.7005 20.9646 37.9599 20.9406V15.6034C33.8182 15.3063 30.5051 12.0674 30.0731 7.96343H25.4833C25.4833 7.96343 25.4353 30.248 25.4353 30.3566C25.4353 33.104 23.0091 35.2686 20.2616 35.2686C17.5142 35.2686 15.2879 33.0423 15.2879 30.2949C15.2879 27.5474 17.5142 25.3211 20.2616 25.3211C20.4146 25.3211 20.5625 25.3414 20.7105 25.3616C20.7616 25.3686 20.8126 25.3756 20.8639 25.3817V20.5794C20.8164 20.5764 20.769 20.5731 20.7216 20.5698C20.5692 20.5592 20.4168 20.5486 20.2616 20.5486C14.8799 20.5486 10.5165 24.912 10.5165 30.2937C10.5165 35.6754 14.8799 40.0389 20.2616 40.0389C25.6433 40.0389 30.0068 35.6754 30.0068 30.2937V17.1086C31.5393 19.4389 34.1736 20.9806 37.1713 20.9806Z" fill="#1C1C1C"/>
</svg>
