<svg width="48" height="46" viewBox="0 0 48 46" fill="none" xmlns="http://www.w3.org/2000/svg">
<path d="M25.0816 0.585435L28.0272 3.8187C28.4604 4.24413 29.1535 4.4143 29.8466 4.24413L34.1784 2.88275C35.1314 2.62749 36.171 3.13801 36.3443 4.15904L37.2973 8.41333C37.4706 9.09402 37.9904 9.51945 38.5968 9.68962L42.9286 10.6256C43.8816 10.8808 44.4881 11.8168 44.2282 12.7527L42.842 17.007C42.6687 17.6026 42.842 18.3684 43.3618 18.7938L46.654 21.6867C47.4337 22.3674 47.4337 23.5586 46.654 24.2393L43.3618 27.1322C42.842 27.5576 42.6687 28.2383 42.842 28.919L44.1415 33.1733C44.4014 34.1093 43.8816 35.1303 42.842 35.3005L38.5102 36.2364C37.8171 36.4066 37.3839 36.9171 37.2107 37.5127L36.2577 41.767C35.9978 42.7029 35.0448 43.2985 34.0918 43.0433L29.8466 41.6819C29.2402 41.5117 28.4604 41.6819 28.0272 42.1924L25.0816 45.4257C24.3885 46.1914 23.1756 46.1914 22.4825 45.4257L19.5369 42.1924C19.1037 41.6819 18.4107 41.4266 17.7176 41.6819L13.3858 43.0433C12.4328 43.2985 11.3931 42.788 11.2199 41.767L10.2669 37.5127C10.0936 36.832 9.57379 36.4066 8.96734 36.2364L4.63554 35.3005C3.68255 35.0452 3.0761 34.1093 3.336 33.1733L4.63554 28.919C4.80882 28.3234 4.63554 27.5576 4.11573 27.1322L0.823562 24.2393C0.0438386 23.5586 0.0438386 22.3674 0.823562 21.6867L4.11573 18.7938C4.63554 18.3684 4.80882 17.6877 4.63554 17.007L3.336 12.7527C3.0761 11.8168 3.59591 10.7957 4.63554 10.6256L8.96734 9.68962C9.66043 9.51945 10.0936 9.00893 10.2669 8.41333L11.2199 4.15904C11.4798 3.2231 12.4328 2.62749 13.3858 2.88275L17.7176 4.24413C18.324 4.4143 19.1037 4.24413 19.5369 3.73361L22.4825 0.500349C23.1756 -0.180338 24.3885 -0.180338 25.0816 0.585435Z" fill="url(#paint0_linear)"/>
<path d="M33.4888 14.5849L20.3853 27.7571L15.9026 23.2509C15.0405 22.3843 13.6612 22.3843 12.8853 23.2509C12.0233 24.1174 12.0233 25.504 12.8853 26.2839L18.9198 32.3501C19.7819 33.2166 21.1612 33.2166 21.937 32.3501L36.5922 17.618C37.4543 16.7514 37.4543 15.3649 36.5922 14.5849C35.7302 13.805 34.3508 13.805 33.4888 14.5849Z" fill="white"/>
<defs>
<linearGradient id="paint0_linear" x1="47.256" y1="45.9345" x2="47.256" y2="-0.0127184" gradientUnits="userSpaceOnUse">
<stop stop-color="#BE353C"/>
<stop offset="0.235" stop-color="#BE353C"/>
<stop offset="0.651" stop-color="#EC434B"/>
<stop offset="1" stop-color="#CF2136"/>
</linearGradient>
</defs>
</svg>
