<svg width="266" height="33" viewBox="0 0 266 33" fill="none" xmlns="http://www.w3.org/2000/svg">
<rect width="164" height="33" fill="#CF2136"/>
<mask id="mask0" mask-type="alpha" maskUnits="userSpaceOnUse" x="0" y="0" width="164" height="33">
<rect width="164" height="33" fill="white"/>
</mask>
<g mask="url(#mask0)">
<path fill-rule="evenodd" clip-rule="evenodd" d="M83.2215 26.8486L84.9015 22.0786H92.9115L94.5315 26.8486H99.4215L91.4115 5.42856H86.5815L78.4815 26.8486H83.2215ZM91.6815 18.5686H86.1315L88.9215 10.7086H88.9815L91.6815 18.5686ZM114.331 18.4786V26.8486H109.621V5.42856H121.171C122.131 5.42856 122.996 5.58356 123.766 5.89356C124.536 6.20356 125.196 6.62856 125.746 7.16856C126.296 7.70856 126.716 8.33356 127.006 9.04356C127.296 9.75356 127.441 10.5186 127.441 11.3386C127.441 12.5986 127.176 13.6886 126.646 14.6086C126.116 15.5286 125.251 16.2286 124.051 16.7086V16.7686C124.631 16.9286 125.111 17.1736 125.491 17.5036C125.871 17.8336 126.181 18.2236 126.421 18.6736C126.661 19.1236 126.836 19.6186 126.946 20.1586C127.056 20.6986 127.131 21.2386 127.171 21.7786C127.191 22.1186 127.211 22.5186 127.231 22.9786C127.251 23.4386 127.286 23.9086 127.336 24.3886C127.386 24.8686 127.466 25.3236 127.576 25.7536C127.686 26.1836 127.851 26.5486 128.071 26.8486H123.361C123.101 26.1686 122.941 25.3586 122.881 24.4186C122.821 23.4786 122.731 22.5786 122.611 21.7186C122.451 20.5986 122.111 19.7786 121.591 19.2586C121.071 18.7386 120.221 18.4786 119.041 18.4786H114.331ZM119.491 15.1186H114.331V9.08856H119.491C120.571 9.08856 121.381 9.32356 121.921 9.79356C122.461 10.2636 122.731 11.0186 122.731 12.0586C122.731 13.1386 122.461 13.9186 121.921 14.3986C121.381 14.8786 120.571 15.1186 119.491 15.1186ZM149.071 9.38856V26.8486H144.361V9.38856H137.941V5.42856H155.491V9.38856H149.071Z" fill="white"/>
</g>
<path fill-rule="evenodd" clip-rule="evenodd" d="M230.091 26.4736C228.791 27.0436 227.311 27.3286 225.651 27.3286C224.011 27.3286 222.536 27.0436 221.226 26.4736C219.916 25.9036 218.811 25.1186 217.911 24.1186C217.011 23.1186 216.321 21.9436 215.841 20.5936C215.361 19.2436 215.121 17.7886 215.121 16.2286C215.121 14.6286 215.361 13.1436 215.841 11.7736C216.321 10.4036 217.011 9.20856 217.911 8.18856C218.811 7.16856 219.916 6.36856 221.226 5.78856C222.536 5.20856 224.011 4.91856 225.651 4.91856C227.311 4.91856 228.791 5.20856 230.091 5.78856C231.391 6.36856 232.491 7.16856 233.391 8.18856C234.291 9.20856 234.981 10.4036 235.461 11.7736C235.941 13.1436 236.181 14.6286 236.181 16.2286C236.181 17.7886 235.941 19.2436 235.461 20.5936C234.981 21.9436 234.291 23.1186 233.391 24.1186C232.491 25.1186 231.391 25.9036 230.091 26.4736ZM187.881 26.8486V22.8886H177.441V5.42856H172.731V26.8486H187.881ZM203.571 26.8486V5.42856H198.861V26.8486H203.571ZM225.651 23.3986C224.591 23.3986 223.691 23.1936 222.951 22.7836C222.211 22.3736 221.611 21.8286 221.151 21.1486C220.691 20.4686 220.356 19.7036 220.146 18.8536C219.936 18.0036 219.831 17.1286 219.831 16.2286C219.831 15.2886 219.936 14.3786 220.146 13.4986C220.356 12.6186 220.691 11.8336 221.151 11.1436C221.611 10.4536 222.211 9.90356 222.951 9.49356C223.691 9.08356 224.591 8.87856 225.651 8.87856C226.711 8.87856 227.611 9.08356 228.351 9.49356C229.091 9.90356 229.691 10.4536 230.151 11.1436C230.611 11.8336 230.946 12.6186 231.156 13.4986C231.366 14.3786 231.471 15.2886 231.471 16.2286C231.471 17.1286 231.366 18.0036 231.156 18.8536C230.946 19.7036 230.611 20.4686 230.151 21.1486C229.691 21.8286 229.091 22.3736 228.351 22.7836C227.611 23.1936 226.711 23.3986 225.651 23.3986ZM252.141 12.5086V26.8486H247.731V5.42856H252.411L261.351 19.7986H261.411V5.42856H265.821V26.8486H261.111L252.201 12.5086H252.141Z" fill="white"/>
</svg>
