<svg width="211" height="71" viewBox="0 0 211 71" fill="none" xmlns="http://www.w3.org/2000/svg">
<path d="M203.185 70.0314H7.81482C3.43852 70.0314 0 66.1797 0 61.2775V8.75393C0 3.85173 3.43852 0 7.81482 0H203.185C207.561 0 211 3.85173 211 8.75393V61.2775C211 66.0046 207.561 70.0314 203.185 70.0314Z" fill="black"/>
<path d="M203.185 1.40063C206.78 1.40063 209.75 4.72712 209.75 8.75393V61.2775C209.75 65.3043 206.78 68.6308 203.185 68.6308H7.81482C4.22 68.6308 1.25037 65.3043 1.25037 61.2775V8.75393C1.25037 4.72712 4.22 1.40063 7.81482 1.40063H203.185ZM203.185 0H7.81482C3.43852 0 0 3.85173 0 8.75393V61.2775C0 66.1797 3.43852 70.0314 7.81482 70.0314H203.185C207.561 70.0314 211 66.1797 211 61.2775V8.75393C211 4.02681 207.561 0 203.185 0Z" fill="#A6A6A6"/>
<path d="M106.043 36.8806C102.233 36.8806 99.2178 39.7408 99.2178 43.7134C99.2178 47.5271 102.233 50.5462 106.043 50.5462C109.852 50.5462 112.867 47.686 112.867 43.7134C112.867 39.5819 109.852 36.8806 106.043 36.8806ZM106.043 47.686C103.979 47.686 102.233 45.938 102.233 43.5545C102.233 41.171 103.979 39.423 106.043 39.423C108.106 39.423 109.852 41.0121 109.852 43.5545C109.852 45.938 108.106 47.686 106.043 47.686ZM91.2821 36.8806C87.4729 36.8806 84.4574 39.7408 84.4574 43.7134C84.4574 47.5271 87.4729 50.5462 91.2821 50.5462C95.0913 50.5462 98.1068 47.686 98.1068 43.7134C98.1068 39.5819 95.0913 36.8806 91.2821 36.8806ZM91.2821 47.686C89.2188 47.686 87.4729 45.938 87.4729 43.5545C87.4729 41.171 89.2188 39.423 91.2821 39.423C93.3454 39.423 95.0912 41.0121 95.0912 43.5545C95.0912 45.938 93.3454 47.686 91.2821 47.686ZM73.6648 38.9463V41.8066H80.4895C80.3308 43.3956 79.6959 44.6668 78.9023 45.4613C77.9501 46.4148 76.3629 47.5271 73.6648 47.5271C69.3795 47.5271 66.2052 44.1901 66.2052 39.8997C66.2052 35.6094 69.5382 32.2724 73.6648 32.2724C75.8868 32.2724 77.6326 33.2258 78.9023 34.3382L80.9656 32.2724C79.2198 30.6834 76.9978 29.4122 73.8235 29.4122C68.1097 29.4122 63.1896 34.1793 63.1896 39.8997C63.1896 45.6202 68.1097 50.3873 73.8235 50.3873C76.9978 50.3873 79.2198 49.4339 81.1244 47.3682C83.0289 45.4613 83.6638 42.76 83.6638 40.6943C83.6638 40.0586 83.6638 39.423 83.5051 38.9463H73.6648ZM145.721 41.171C145.086 39.5819 143.499 36.8806 140.008 36.8806C136.516 36.8806 133.659 39.5819 133.659 43.7134C133.659 47.5271 136.516 50.5462 140.325 50.5462C143.341 50.5462 145.245 48.6394 145.88 47.5271L143.658 45.938C142.864 47.0504 141.912 47.8449 140.325 47.8449C138.738 47.8449 137.786 47.2093 136.992 45.7791L146.039 41.9655L145.721 41.171ZM136.516 43.3956C136.516 40.8532 138.579 39.423 140.008 39.423C141.119 39.423 142.23 40.0586 142.547 40.8532L136.516 43.3956ZM129.056 49.9106H132.072V30.0478H129.056V49.9106ZM124.295 38.3107C123.501 37.5162 122.231 36.7217 120.644 36.7217C117.311 36.7217 114.137 39.7408 114.137 43.5545C114.137 47.3682 117.153 50.2284 120.644 50.2284C122.231 50.2284 123.501 49.4339 124.136 48.6394H124.295V49.5928C124.295 52.1352 122.866 53.5654 120.644 53.5654C118.898 53.5654 117.629 52.2941 117.311 51.1818L114.772 52.2942C115.565 54.0421 117.47 56.2667 120.803 56.2667C124.295 56.2667 127.152 54.201 127.152 49.275V37.1984H124.295V38.3107ZM120.803 47.686C118.74 47.686 116.994 45.938 116.994 43.5545C116.994 41.171 118.74 39.423 120.803 39.423C122.866 39.423 124.453 41.171 124.453 43.5545C124.453 45.938 122.866 47.686 120.803 47.686ZM159.529 30.0478H152.387V49.9106H155.403V42.4422H159.529C162.862 42.4422 166.037 40.0586 166.037 36.245C166.037 32.4313 162.862 30.0478 159.529 30.0478ZM159.688 39.5819H155.403V32.7491H159.688C161.91 32.7491 163.18 34.656 163.18 36.0861C163.021 37.834 161.751 39.5819 159.688 39.5819ZM177.94 36.7217C175.718 36.7217 173.496 37.6751 172.703 39.7408L175.401 40.8532C176.036 39.7408 176.988 39.423 178.099 39.423C179.686 39.423 181.115 40.3765 181.273 41.9655V42.1244C180.797 41.8066 179.528 41.3299 178.258 41.3299C175.401 41.3299 172.544 42.9189 172.544 45.7791C172.544 48.4805 174.925 50.2284 177.464 50.2284C179.528 50.2284 180.48 49.275 181.273 48.3216H181.432V49.9106H184.289V42.2833C183.972 38.7874 181.273 36.7217 177.94 36.7217ZM177.623 47.686C176.671 47.686 175.242 47.2093 175.242 45.938C175.242 44.349 176.988 43.8723 178.417 43.8723C179.686 43.8723 180.321 44.1901 181.115 44.5079C180.797 46.4148 179.21 47.686 177.623 47.686ZM194.288 37.1984L190.955 45.7791H190.796L187.305 37.1984H184.13L189.368 49.275L186.352 55.9489H189.368L197.462 37.1984H194.288ZM167.624 49.9106H170.64V30.0478H167.624V49.9106Z" fill="white"/>
<path d="M14.8602 13.7378C14.3841 14.2127 14.0668 15.0043 14.0668 15.9542V50.941C14.0668 51.8909 14.3841 52.6825 14.8602 53.1574L15.0189 53.3157L34.6962 33.6851V33.5268V33.3684L14.8602 13.7378Z" fill="url(#paint0_linear)"/>
<path d="M41.2025 40.3341L34.6963 33.8433V33.5267V33.3684L41.2025 26.8776L41.3612 27.0359L49.1369 31.4687C51.3585 32.7352 51.3585 34.7932 49.1369 36.0597L41.2025 40.3341Z" fill="url(#paint1_linear)"/>
<path d="M41.3613 40.1758L34.6964 33.5267L14.8604 53.3157C15.6539 54.1073 16.7647 54.1073 18.1929 53.474L41.3613 40.1758Z" fill="url(#paint2_linear)"/>
<path d="M41.3613 26.8776L18.1929 13.7378C16.7647 12.9462 15.6539 13.1045 14.8604 13.8961L34.6964 33.5267L41.3613 26.8776Z" fill="url(#paint3_linear)"/>
<path opacity="0.2" d="M41.2027 40.0175L18.1929 52.999C16.9234 53.7906 15.8126 53.6323 15.0192 52.999L14.8605 53.1573L15.0192 53.3156C15.8126 53.9489 16.9234 54.1072 18.1929 53.3156L41.2027 40.0175Z" fill="black"/>
<path opacity="0.12" d="M14.8596 52.9991C14.3835 52.5241 14.2249 51.7326 14.2249 50.7827V50.941C14.2249 51.8909 14.5422 52.6824 15.0183 53.1574V52.9991H14.8596Z" fill="black"/>
<path opacity="0.12" d="M49.137 35.5848L41.2026 40.0175L41.3613 40.1758L49.137 35.7431C50.2479 35.1098 50.7239 34.3183 50.7239 33.5267C50.7239 34.3183 50.0892 34.9515 49.137 35.5848Z" fill="black"/>
<path opacity="0.25" d="M18.1925 13.8961L49.1367 31.4687C50.0888 32.1019 50.7236 32.7352 50.7236 33.5267C50.7236 32.7352 50.2475 31.9436 49.1367 31.3104L18.1925 13.7378C15.9709 12.4713 14.2253 13.5795 14.2253 16.1124V16.2708C14.2253 13.7378 15.9709 12.6296 18.1925 13.8961Z" fill="white"/>
<path d="M65.164 24.503H64.0532V21.3368H65.0053C65.7988 20.7035 66.2748 19.437 66.2748 17.6956V12.9462H72.6224V21.3368H73.7332V24.503H72.6224V22.4449H65.3227V24.503H65.164ZM67.3857 17.6956C67.3857 19.1204 67.0683 20.3869 66.4335 21.3368H71.1942V14.2127H67.227V17.6956H67.3857Z" fill="white" stroke="white" stroke-width="0.2" stroke-miterlimit="10"/>
<path d="M83.0958 21.1784C82.1436 22.1282 81.0328 22.6032 79.6046 22.6032C78.1764 22.6032 77.0656 22.1282 76.1135 21.1784C75.1614 20.2285 74.6853 19.1203 74.6853 17.6955C74.6853 16.2707 75.1614 15.1625 76.1135 14.2126C77.0656 13.2628 78.1764 12.7878 79.6046 12.7878C81.0328 12.7878 82.1436 13.2628 83.0958 14.2126C84.0479 15.1625 84.524 16.2707 84.524 17.6955C84.524 19.1203 84.0479 20.2285 83.0958 21.1784ZM77.0656 20.3868C77.7004 21.0201 78.6525 21.495 79.6046 21.495C80.5568 21.495 81.5089 21.1784 82.1436 20.3868C82.7784 19.7536 83.2545 18.8037 83.2545 17.6955C83.2545 16.5873 82.9371 15.6375 82.1436 15.0042C81.5089 14.371 80.5568 13.896 79.6046 13.896C78.6525 13.896 77.7004 14.2126 77.0656 15.0042C76.4309 15.6375 75.9548 16.5873 75.9548 17.6955C75.9548 18.8037 76.2722 19.7536 77.0656 20.3868Z" fill="white" stroke="white" stroke-width="0.2" stroke-miterlimit="10"/>
<path d="M90.7128 22.6032C89.2847 22.6032 88.1738 22.1282 87.2217 21.1784C86.2696 20.2285 85.7935 19.1203 85.7935 17.6955C85.7935 16.2707 86.2696 15.1625 87.2217 14.2126C88.1738 13.2628 89.2847 12.7878 90.7128 12.7878C92.141 12.7878 93.2519 13.2628 94.204 14.371L93.4105 15.1625C92.7758 14.371 91.8237 13.896 90.7128 13.896C89.602 13.896 88.8086 14.2126 88.0152 15.0042C87.2217 15.6375 86.9043 16.5873 86.9043 17.6955C86.9043 18.8037 87.2217 19.7536 88.0152 20.3868C88.6499 21.0201 89.602 21.495 90.7128 21.495C91.8237 21.495 92.7758 21.0201 93.5692 20.0702L94.3627 20.8617C93.8866 21.3367 93.4105 21.8116 92.7758 22.1282C92.141 22.4449 91.5063 22.6032 90.7128 22.6032Z" fill="white" stroke="white" stroke-width="0.2" stroke-miterlimit="10"/>
<path d="M99.4406 22.4449H98.1712V14.0544H95.4734V12.9462H101.98V14.0544H99.282V22.4449H99.4406Z" fill="white" stroke="white" stroke-width="0.2" stroke-miterlimit="10"/>
<path d="M110.39 12.9462L106.74 21.0201C106.264 22.1283 105.471 22.7616 104.519 22.7616C104.201 22.7616 103.884 22.7616 103.567 22.6032L103.884 21.4951C104.043 21.6534 104.36 21.6534 104.519 21.6534C104.836 21.6534 104.995 21.6534 105.153 21.4951C105.312 21.3367 105.471 21.1784 105.629 20.8618L105.947 20.0703L102.773 13.1045H104.201L106.582 18.4871L108.803 13.1045H110.39V12.9462Z" fill="white" stroke="white" stroke-width="0.2" stroke-miterlimit="10"/>
<path d="M111.818 22.4449V12.9462H118.642V22.4449H117.372V14.0544H112.929V22.4449H111.818Z" fill="white" stroke="white" stroke-width="0.2" stroke-miterlimit="10"/>
<path d="M120.863 22.4449V12.9462H122.133V17.0623H126.894V12.9462H128.163V22.4449H126.894V18.1705H122.133V22.4449H120.863Z" fill="white" stroke="white" stroke-width="0.2" stroke-miterlimit="10"/>
<path d="M138.16 21.1784C137.208 22.1282 136.098 22.6032 134.669 22.6032C133.241 22.6032 132.13 22.1282 131.178 21.1784C130.226 20.2285 129.75 19.1203 129.75 17.6955C129.75 16.2707 130.226 15.1625 131.178 14.2126C132.13 13.2628 133.241 12.7878 134.669 12.7878C136.098 12.7878 137.208 13.2628 138.16 14.2126C139.113 15.1625 139.589 16.2707 139.589 17.6955C139.43 19.1203 138.954 20.2285 138.16 21.1784ZM131.972 20.3868C132.606 21.0201 133.559 21.495 134.511 21.495C135.463 21.495 136.415 21.1784 137.05 20.3868C137.684 19.7536 138.16 18.8037 138.16 17.6955C138.16 16.5873 137.843 15.6375 137.05 15.0042C136.415 14.371 135.463 13.896 134.511 13.896C133.559 13.896 132.606 14.2126 131.972 15.0042C131.337 15.6375 130.861 16.5873 130.861 17.6955C130.861 18.8037 131.337 19.7536 131.972 20.3868Z" fill="white" stroke="white" stroke-width="0.2" stroke-miterlimit="10"/>
<path d="M144.508 22.4449V12.9462H147.999C148.792 12.9462 149.427 13.2629 149.903 13.7378C150.379 14.2127 150.697 14.846 150.697 15.6375C150.697 16.1125 150.538 16.4291 150.379 16.904C150.221 17.2206 149.903 17.5373 149.427 17.6956C149.903 17.8539 150.221 18.1705 150.538 18.4871C150.855 18.8038 151.014 19.2787 151.014 19.9119C151.014 20.7035 150.697 21.3368 150.221 21.8117C149.586 22.2866 148.951 22.6032 148.158 22.6032H144.508V22.4449ZM145.777 17.0623H147.999C148.475 17.0623 148.792 16.904 149.11 16.5874C149.427 16.2708 149.586 15.9542 149.586 15.6375C149.586 15.3209 149.427 15.0043 149.11 14.6877C148.792 14.371 148.475 14.2127 147.999 14.2127H145.777V17.0623ZM145.777 21.3367H148.316C148.792 21.3367 149.11 21.1784 149.427 20.8618C149.745 20.5452 149.903 20.2286 149.903 19.7536C149.903 19.437 149.745 18.9621 149.427 18.6455C149.11 18.3288 148.792 18.1705 148.316 18.1705H145.936V21.3367H145.777Z" fill="white" stroke="white" stroke-width="0.2" stroke-miterlimit="10"/>
<defs>
<linearGradient id="paint0_linear" x1="32.9502" y1="15.6529" x2="6.38173" y2="42.2845" gradientUnits="userSpaceOnUse">
<stop stop-color="#00A0FF"/>
<stop offset="0.00657445" stop-color="#00A1FF"/>
<stop offset="0.2601" stop-color="#00BEFF"/>
<stop offset="0.5122" stop-color="#00D2FF"/>
<stop offset="0.7604" stop-color="#00DFFF"/>
<stop offset="1" stop-color="#00E3FF"/>
</linearGradient>
<linearGradient id="paint1_linear" x1="52.0479" y1="33.5289" x2="13.6503" y2="33.5289" gradientUnits="userSpaceOnUse">
<stop stop-color="#FFE000"/>
<stop offset="0.4087" stop-color="#FFBD00"/>
<stop offset="0.7754" stop-color="#FFA500"/>
<stop offset="1" stop-color="#FF9C00"/>
</linearGradient>
<linearGradient id="paint2_linear" x1="37.7543" y1="37.1617" x2="1.72537" y2="73.2763" gradientUnits="userSpaceOnUse">
<stop stop-color="#FF3A44"/>
<stop offset="1" stop-color="#C31162"/>
</linearGradient>
<linearGradient id="paint3_linear" x1="9.9368" y1="2.14332" x2="26.0253" y2="18.2699" gradientUnits="userSpaceOnUse">
<stop stop-color="#32A071"/>
<stop offset="0.0685" stop-color="#2DA771"/>
<stop offset="0.4762" stop-color="#15CF74"/>
<stop offset="0.8009" stop-color="#06E775"/>
<stop offset="1" stop-color="#00F076"/>
</linearGradient>
</defs>
</svg>
