<svg width="210" height="71" viewBox="0 0 210 71" fill="none" xmlns="http://www.w3.org/2000/svg">
<g clip-path="url(#clip0)">
<path d="M193.277 0.000106068H16.7325C16.089 0.000106068 15.4532 0.000106068 14.8114 0.00361589C14.2741 0.00712572 13.7411 0.0173218 13.1987 0.0259033C12.0203 0.0397703 10.8447 0.143441 9.68203 0.336014C8.52102 0.532779 7.39638 0.903738 6.34615 1.43634C5.2972 1.97346 4.33875 2.67138 3.50556 3.50479C2.668 4.33586 1.96982 5.29646 1.43789 6.34966C0.904482 7.40076 0.534617 8.52712 0.341067 9.68982C0.145677 10.8511 0.0405356 12.0257 0.0265869 13.2032C0.0103013 13.7412 0.00858152 14.2811 0 14.8192V55.3827C0.00858152 55.9276 0.0103013 56.4555 0.0265869 57.0005C0.0405399 58.178 0.145681 59.3525 0.341067 60.5137C0.534083 61.6771 0.90397 62.8041 1.43789 63.8556C1.96958 64.9054 2.66786 65.8621 3.50556 66.6885C4.33559 67.5257 5.29466 68.2241 6.34615 68.7571C7.39637 69.2911 8.52089 69.6643 9.68203 69.8641C10.8449 70.0551 12.0204 70.1588 13.1987 70.1743C13.7411 70.1863 14.2741 70.1931 14.8114 70.1931C15.4532 70.1966 16.089 70.1966 16.7325 70.1966H193.277C193.908 70.1966 194.549 70.1966 195.179 70.1931C195.714 70.1931 196.262 70.1863 196.797 70.1743C197.973 70.1596 199.146 70.0559 200.307 69.8641C201.472 69.6628 202.6 69.2898 203.656 68.7571C204.706 68.2237 205.664 67.5254 206.494 66.6885C207.329 65.8589 208.029 64.9028 208.567 63.8556C209.097 62.8033 209.464 61.6764 209.654 60.5137C209.849 59.3524 209.958 58.1781 209.979 57.0005C209.986 56.4555 209.986 55.9276 209.986 55.3827C210 54.7451 210 54.1111 210 53.4632V16.7352C210 16.0925 210 15.455 209.986 14.8192C209.986 14.2811 209.986 13.7412 209.979 13.2031C209.958 12.0255 209.849 10.8511 209.654 9.68975C209.463 8.52772 209.097 7.40146 208.567 6.34959C207.484 4.23856 205.766 2.52021 203.656 1.43619C202.6 0.904882 201.472 0.534021 200.307 0.335856C199.147 0.142434 197.973 0.0387278 196.797 0.0256576C196.262 0.0170936 195.714 0.00680983 195.179 0.00338776C194.549 -0.00012207 193.908 -0.00012207 193.277 -0.00012207V0.000106068Z" fill="#A6A6A6"/>
<path d="M14.8199 68.6609C14.2852 68.6609 13.7635 68.6541 13.233 68.6422C12.134 68.6278 11.0376 68.5322 9.9528 68.3559C8.94125 68.1817 7.96133 67.8576 7.04536 67.3944C6.1378 66.935 5.31002 66.3326 4.59375 65.6104C3.86711 64.8966 3.26215 64.0688 2.80285 63.1596C2.33848 62.2446 2.01711 61.2638 1.84993 60.2514C1.66939 59.1635 1.57171 58.0636 1.55774 56.9609C1.54661 56.5908 1.53204 55.3585 1.53204 55.3585V14.8191C1.53204 14.8191 1.54756 13.6057 1.55782 13.2492C1.57121 12.1483 1.66832 11.05 1.84831 9.96389C2.0158 8.94871 2.33742 7.96508 2.80204 7.04705C3.25966 6.13856 3.86126 5.31009 4.58352 4.59377C5.30497 3.87065 6.13539 3.26517 7.0445 2.79943C7.95837 2.33768 8.93643 2.0159 9.94594 1.84486C11.0343 1.66685 12.1345 1.57061 13.2373 1.55695L14.8208 1.53552H195.171L196.773 1.55781C197.866 1.57079 198.956 1.66618 200.034 1.84314C201.054 2.01632 202.042 2.34035 202.967 2.80457C204.788 3.74318 206.27 5.22814 207.205 7.05134C207.662 7.96303 207.979 8.93863 208.144 9.94505C208.326 11.0401 208.428 12.147 208.449 13.2569C208.454 13.7539 208.454 14.2878 208.454 14.8191C208.468 15.4771 208.468 16.1035 208.468 16.735V53.463C208.468 54.1006 208.468 54.7227 208.454 55.3499C208.454 55.9206 208.454 56.4434 208.447 56.9815C208.427 58.0716 208.327 59.1587 208.147 60.2342C207.984 61.2539 207.664 62.2424 207.2 63.1649C206.737 64.0641 206.136 64.8848 205.417 65.5967C204.7 66.3228 203.871 66.9287 202.962 67.3911C202.04 67.8579 201.053 68.1831 200.034 68.3559C198.95 68.5331 197.853 68.6288 196.754 68.6422C196.24 68.6541 195.702 68.6609 195.179 68.6609L193.277 68.6644L14.8199 68.6609Z" fill="black"/>
<path d="M43.4672 35.6259C43.4861 34.1612 43.8751 32.725 44.5982 31.451C45.3213 30.177 46.3548 29.1066 47.6028 28.3394C46.81 27.2072 45.7642 26.2755 44.5483 25.6182C43.3325 24.9609 41.9801 24.5961 40.5986 24.5529C37.6517 24.2436 34.7948 26.3163 33.2931 26.3163C31.7623 26.3163 29.4502 24.5836 26.9605 24.6348C25.35 24.6869 23.7806 25.1552 22.4049 25.9941C21.0293 26.8331 19.8944 28.0141 19.1109 29.422C15.7169 35.2982 18.2485 43.9342 21.4997 48.6841C23.1263 51.0099 25.0274 53.608 27.5149 53.5159C29.9491 53.4149 30.8582 51.9637 33.7964 51.9637C36.7074 51.9637 37.5603 53.5159 40.0983 53.4573C42.7103 53.4149 44.356 51.1211 45.9255 48.7732C47.0942 47.1159 47.9936 45.2843 48.5902 43.3461C47.0727 42.7043 45.7777 41.63 44.8667 40.2571C43.9557 38.8842 43.469 37.2736 43.4672 35.6259Z" fill="white"/>
<path d="M38.6734 21.4291C40.0975 19.7194 40.7992 17.522 40.6293 15.3033C38.4535 15.5319 36.4436 16.5718 35.0002 18.2158C34.2945 19.019 33.754 19.9534 33.4096 20.9655C33.0652 21.9777 32.9237 23.0479 32.9931 24.1148C34.0814 24.126 35.1581 23.8901 36.142 23.4249C37.1259 22.9597 37.9914 22.2773 38.6734 21.4291Z" fill="white"/>
<path d="M74.2368 47.6277H65.93L63.9352 53.518H60.4168L68.2848 31.7255H71.9403L79.8083 53.518H76.2299L74.2368 47.6277ZM66.7904 44.9096H73.3748L70.1289 35.3501H70.0381L66.7904 44.9096Z" fill="white"/>
<path d="M96.8004 45.5746C96.8004 50.512 94.1578 53.6842 90.1698 53.6842C89.1596 53.7371 88.1549 53.5044 87.2708 53.0127C86.3867 52.5211 85.6589 51.7905 85.1707 50.9044H85.0953V58.7741H81.8339V37.6295H84.9908V40.2722H85.0507C85.5613 39.3904 86.3014 38.6635 87.1923 38.1689C88.0831 37.6743 89.0914 37.4304 90.1098 37.4633C94.1423 37.4633 96.8004 40.6509 96.8004 45.5746ZM93.4483 45.5746C93.4483 42.3579 91.7859 40.243 89.2495 40.243C86.7577 40.243 85.0816 42.4024 85.0816 45.5746C85.0816 48.776 86.7577 50.9199 89.2495 50.9199C91.7859 50.9199 93.4483 48.8205 93.4483 45.5746Z" fill="white"/>
<path d="M114.288 45.5746C114.288 50.5121 111.645 53.6843 107.657 53.6843C106.647 53.7371 105.642 53.5044 104.758 53.0128C103.874 52.5212 103.146 51.7905 102.658 50.9045H102.583V58.7742H99.3214V37.6295H102.478V40.2722H102.538C103.049 39.3904 103.789 38.6635 104.68 38.1689C105.571 37.6743 106.579 37.4305 107.597 37.4633C111.63 37.4633 114.288 40.6509 114.288 45.5746ZM110.936 45.5746C110.936 42.3579 109.273 40.2431 106.737 40.2431C104.245 40.2431 102.569 42.4024 102.569 45.5746C102.569 48.776 104.245 50.9199 106.737 50.9199C109.273 50.9199 110.936 48.8206 110.936 45.5746H110.936Z" fill="white"/>
<path d="M125.846 47.4461C126.087 49.6071 128.187 51.0261 131.055 51.0261C133.804 51.0261 135.782 49.6071 135.782 47.6585C135.782 45.967 134.589 44.9542 131.765 44.2601L128.941 43.5797C124.939 42.6131 123.081 40.7417 123.081 37.7048C123.081 33.9448 126.358 31.3621 131.011 31.3621C135.616 31.3621 138.773 33.9448 138.879 37.7048H135.587C135.39 35.53 133.592 34.2173 130.965 34.2173C128.337 34.2173 126.54 35.5455 126.54 37.4786C126.54 39.0193 127.688 39.9259 130.497 40.6199L132.898 41.2095C137.369 42.2669 139.227 44.063 139.227 47.2505C139.227 51.3276 135.979 53.8812 130.814 53.8812C125.981 53.8812 122.718 51.3876 122.507 47.4459L125.846 47.4461Z" fill="white"/>
<path d="M146.265 33.8695V37.6295H149.287V40.2122H146.265V48.9714C146.265 50.3321 146.87 50.9662 148.198 50.9662C148.557 50.9599 148.915 50.9348 149.271 50.8907V53.458C148.674 53.5696 148.067 53.6201 147.46 53.6088C144.243 53.6088 142.989 52.4006 142.989 49.3192V40.2122H140.678V37.6295H142.989V33.8695H146.265Z" fill="white"/>
<path d="M151.036 45.5746C151.036 40.5755 153.981 37.4341 158.572 37.4341C163.179 37.4341 166.109 40.5754 166.109 45.5746C166.109 50.5874 163.194 53.7151 158.572 53.7151C153.952 53.7151 151.036 50.5874 151.036 45.5746ZM162.786 45.5746C162.786 42.1453 161.215 40.1214 158.572 40.1214C155.929 40.1214 154.36 42.1608 154.36 45.5746C154.36 49.0176 155.929 51.0262 158.572 51.0262C161.215 51.0262 162.786 49.0176 162.786 45.5746H162.786Z" fill="white"/>
<path d="M168.798 37.6295H171.909V40.3339H171.984C172.195 39.4892 172.689 38.7428 173.385 38.2201C174.081 37.6973 174.936 37.4301 175.806 37.4633C176.182 37.462 176.556 37.5028 176.923 37.585V40.6355C176.449 40.4905 175.954 40.4239 175.458 40.4384C174.984 40.4192 174.512 40.5027 174.073 40.6833C173.635 40.8638 173.241 41.1371 172.918 41.4844C172.595 41.8317 172.351 42.2447 172.203 42.6952C172.055 43.1456 172.006 43.6228 172.059 44.0939V53.518H168.798L168.798 37.6295Z" fill="white"/>
<path d="M191.96 48.8514C191.521 51.7356 188.712 53.7151 185.118 53.7151C180.496 53.7151 177.627 50.6183 177.627 45.65C177.627 40.6663 180.512 37.4341 184.981 37.4341C189.377 37.4341 192.141 40.4538 192.141 45.2713V46.3887H180.92V46.5857C180.868 47.1705 180.941 47.7595 181.134 48.3138C181.328 48.8681 181.637 49.3749 182.041 49.8005C182.445 50.2262 182.936 50.5609 183.479 50.7826C184.023 51.0042 184.607 51.1077 185.194 51.0861C185.965 51.1583 186.738 50.9798 187.399 50.5772C188.06 50.1745 188.574 49.5692 188.863 48.8513L191.96 48.8514ZM180.935 44.1093H188.878C188.908 43.5836 188.828 43.0574 188.644 42.5639C188.461 42.0704 188.177 41.6202 187.811 41.2416C187.445 40.8629 187.005 40.564 186.518 40.3636C186.031 40.1631 185.508 40.0655 184.981 40.0768C184.45 40.0736 183.924 40.1757 183.432 40.377C182.941 40.5784 182.494 40.8751 182.118 41.25C181.742 41.6249 181.444 42.0706 181.241 42.5614C181.037 43.0521 180.934 43.5782 180.935 44.1093V44.1093Z" fill="white"/>
<path d="M64.4724 19.7488H65.8726C66.1136 19.7788 66.3583 19.7586 66.5911 19.6893C66.8239 19.6201 67.0399 19.5034 67.2253 19.3466C67.4108 19.1898 67.5618 18.9962 67.6688 18.7782C67.7758 18.5601 67.8364 18.3222 67.8469 18.0796C67.8469 17.1139 67.1202 16.49 65.888 16.49C65.6411 16.4555 65.3897 16.4709 65.1488 16.5351C64.9079 16.5993 64.6823 16.7112 64.4853 16.8641C64.2884 17.017 64.124 17.2078 64.002 17.4252C63.88 17.6427 63.8028 17.8823 63.7749 18.1301H62.2376C62.2641 17.6803 62.3829 17.2408 62.5865 16.8389C62.7902 16.437 63.0745 16.0814 63.4216 15.7941C63.7686 15.5068 64.1712 15.294 64.604 15.1691C65.0369 15.0441 65.4909 15.0095 65.9377 15.0676C67.9994 15.0676 69.451 16.2218 69.451 17.8833C69.4559 18.44 69.2696 18.9814 68.9234 19.4173C68.5772 19.8531 68.092 20.1571 67.5487 20.2784V20.4017C68.1927 20.4303 68.7993 20.7127 69.2357 21.1872C69.6722 21.6617 69.903 22.2897 69.8777 22.9339C69.8301 23.397 69.6904 23.8459 69.467 24.2543C69.2436 24.6628 68.9409 25.0225 68.5767 25.3125C68.2124 25.6024 67.794 25.8167 67.3458 25.9428C66.8977 26.069 66.4289 26.1044 65.9669 26.0469C65.5039 26.1101 65.033 26.0793 64.5821 25.9565C64.1313 25.8338 63.7098 25.6215 63.3428 25.3323C62.9758 25.0432 62.6707 24.6831 62.4458 24.2735C62.2209 23.864 62.0808 23.4133 62.0338 22.9484H63.595C63.6893 23.9501 64.6096 24.5963 65.9669 24.5963C67.3242 24.5963 68.2102 23.8705 68.2102 22.8474C68.2102 21.8097 67.3756 21.1704 65.9172 21.1704H64.4724V19.7488Z" fill="white"/>
<path d="M71.6515 23.5585C71.6515 22.1361 72.7123 21.316 74.5906 21.1995L76.7311 21.0761V20.394C76.7311 19.5594 76.181 19.0881 75.1133 19.0881C74.2427 19.0881 73.6412 19.4077 73.4664 19.9664H71.9565C72.1159 18.6091 73.3944 17.7385 75.187 17.7385C77.1682 17.7385 78.2855 18.7248 78.2855 20.394V25.7933H76.7825V24.6828H76.6592C76.4087 25.0811 76.057 25.4059 75.64 25.6238C75.223 25.8418 74.7556 25.9452 74.2856 25.9235C73.9538 25.958 73.6186 25.9226 73.3013 25.8196C72.9841 25.7166 72.692 25.5482 72.4438 25.3254C72.1956 25.1026 71.9969 24.8303 71.8604 24.5259C71.724 24.2216 71.6528 23.892 71.6515 23.5585ZM76.7311 22.8833V22.2226L74.8013 22.346C73.7131 22.4188 73.2195 22.789 73.2195 23.4857C73.2195 24.1969 73.8365 24.6108 74.6849 24.6108C74.9334 24.6359 75.1846 24.6108 75.4232 24.537C75.6619 24.4631 75.8833 24.342 76.0742 24.1808C76.2651 24.0197 76.4217 23.8217 76.5345 23.5988C76.6474 23.3759 76.7143 23.1326 76.7311 22.8833Z" fill="white"/>
<path d="M82.4244 19.2038V25.7932H80.8648V17.891H86.0679V19.2037L82.4244 19.2038Z" fill="white"/>
<path d="M95.5193 21.8387C95.5193 24.3494 94.2494 25.9235 92.2546 25.9235C91.7649 25.957 91.2758 25.8498 90.845 25.6147C90.4142 25.3795 90.0595 25.0262 89.8227 24.5962H89.6993V28.4205H88.1398V17.891H89.641V19.197H89.7576C89.9986 18.752 90.3579 18.3823 90.7958 18.1287C91.2338 17.8751 91.7332 17.7475 92.2391 17.76C94.2494 17.7599 95.5193 19.3272 95.5193 21.8387ZM93.9152 21.8387C93.9152 20.1695 93.1252 19.161 91.8039 19.161C90.4912 19.161 89.6702 20.1909 89.6702 21.8456C89.6702 23.4926 90.4911 24.5234 91.797 24.5234C93.1252 24.5234 93.9152 23.5148 93.9152 21.8387Z" fill="white"/>
<path d="M97.5966 28.6236V27.2808C97.7653 27.3023 97.9354 27.312 98.1055 27.3099C98.4377 27.3346 98.7674 27.2356 99.0312 27.0321C99.295 26.8285 99.4743 26.5348 99.5348 26.2071L99.6513 25.8224L96.791 17.891H98.4894L100.471 24.1677H100.594L102.568 17.891H104.222L101.276 26.1197C100.601 28.0426 99.8536 28.6596 98.2427 28.6596C98.1124 28.6595 97.7422 28.645 97.5966 28.6236Z" fill="white"/>
<path d="M105.437 23.5508H106.99C107.142 24.2475 107.795 24.6108 108.709 24.6108C109.747 24.6108 110.385 24.1532 110.385 23.442C110.385 22.6802 109.812 22.3169 108.709 22.3169H107.526V21.1053H108.688C109.631 21.1053 110.11 20.7428 110.11 20.0822C110.11 19.502 109.646 19.0591 108.688 19.0591C107.816 19.0591 107.178 19.4292 107.077 20.0531H105.574C105.686 19.3362 106.076 18.6922 106.658 18.2593C107.24 17.8265 107.969 17.6395 108.688 17.7386C110.566 17.7386 111.641 18.5878 111.641 19.9228C111.65 20.2946 111.53 20.6581 111.303 20.9526C111.076 21.247 110.755 21.4546 110.393 21.5406V21.664C110.824 21.7196 111.219 21.9313 111.504 22.2591C111.789 22.5868 111.944 23.0078 111.939 23.4421C111.939 24.9443 110.661 25.9382 108.709 25.9382C106.983 25.9381 105.581 25.1472 105.437 23.5508Z" fill="white"/>
<path d="M114.185 25.7932V17.891H115.731V23.3263H115.854L119.496 17.891H121.042V25.7933H119.496V20.3289H119.38L115.731 25.7933L114.185 25.7932Z" fill="white"/>
<path d="M129.558 19.2038H127.069V25.7933H125.508V19.2038H123.019V17.8911H129.558V19.2038Z" fill="white"/>
<path d="M137.959 23.6596C137.746 24.3818 137.287 25.0064 136.66 25.4242C136.034 25.8421 135.281 26.0267 134.533 25.9458C134.012 25.9595 133.495 25.8598 133.017 25.6536C132.538 25.4473 132.111 25.1395 131.763 24.7514C131.416 24.3633 131.157 23.9043 131.005 23.4062C130.853 22.9081 130.811 22.3829 130.882 21.867C130.813 21.3495 130.856 20.8231 131.008 20.3235C131.159 19.824 131.417 19.3628 131.762 18.9714C132.108 18.5799 132.533 18.2672 133.01 18.0545C133.487 17.8418 134.004 17.734 134.526 17.7385C136.725 17.7385 138.053 19.2407 138.053 21.7221V22.2663H132.473V22.3537C132.448 22.6438 132.484 22.9358 132.579 23.211C132.674 23.4862 132.825 23.7385 133.024 23.9517C133.222 24.1649 133.463 24.3343 133.73 24.449C133.998 24.5637 134.286 24.6211 134.577 24.6176C134.95 24.6621 135.328 24.5949 135.662 24.4243C135.997 24.2537 136.273 23.9875 136.456 23.6596L137.959 23.6596ZM132.473 21.1129H136.462C136.482 20.8478 136.446 20.5816 136.357 20.3312C136.268 20.0808 136.127 19.8519 135.944 19.6591C135.761 19.4664 135.54 19.314 135.294 19.2118C135.049 19.1096 134.785 19.0599 134.519 19.0658C134.249 19.0621 133.981 19.1126 133.731 19.2142C133.481 19.3158 133.254 19.4664 133.064 19.6573C132.873 19.8481 132.722 20.0753 132.621 20.3253C132.519 20.5753 132.469 20.8431 132.473 21.1129H132.473Z" fill="white"/>
<path d="M144.57 17.891H148.133C149.679 17.891 150.586 18.6742 150.586 19.9004C150.588 20.2894 150.457 20.6675 150.214 20.9714C149.971 21.2753 149.631 21.4864 149.251 21.5696V21.693C149.712 21.7221 150.145 21.9274 150.459 22.2665C150.774 22.6055 150.946 23.0523 150.94 23.5147C150.94 24.8935 149.904 25.7932 148.169 25.7932H144.57V17.891ZM146.116 19.0881V21.1343H147.662C148.605 21.1343 149.055 20.7718 149.055 20.1035C149.055 19.4874 148.663 19.0881 147.835 19.0881L146.116 19.0881ZM146.116 22.2809V24.5962H147.965C148.887 24.5962 149.381 24.1892 149.381 23.442C149.381 22.6511 148.822 22.2809 147.77 22.2809L146.116 22.2809Z" fill="white"/>
</g>
<defs>
<clipPath id="clip0">
<rect width="210" height="70.1965" fill="white"/>
</clipPath>
</defs>
</svg>
