<svg width="242" height="81" viewBox="0 0 242 81" fill="none" xmlns="http://www.w3.org/2000/svg">
<g clip-path="url(#clip0)">
<path d="M222.729 0.00014118H19.2822C18.5407 0.00014118 17.808 0.00014118 17.0683 0.00419118C16.4492 0.00824118 15.835 0.0200064 15.2099 0.0299087C13.852 0.0459098 12.4972 0.165536 11.1574 0.387746C9.81946 0.614795 8.52345 1.04285 7.31318 1.65742C6.1044 2.2772 4.99989 3.08253 4.03974 4.04421C3.07455 5.00318 2.26999 6.11162 1.65699 7.32692C1.04231 8.53979 0.616083 9.83949 0.393039 11.1811C0.167875 12.5211 0.0467125 13.8765 0.0306383 15.2352C0.0118711 15.8561 0.00988918 16.479 0 17.0999V63.9063C0.00988918 64.5351 0.0118711 65.1442 0.0306383 65.7732C0.0467174 67.1318 0.16788 68.4871 0.393039 69.827C0.615467 71.1694 1.04172 72.4699 1.65699 73.6832C2.26971 74.8946 3.07438 75.9985 4.03974 76.9522C4.99625 77.9181 6.10147 78.724 7.31318 79.339C8.52344 79.9553 9.81931 80.3859 11.1574 80.6164C12.4974 80.8368 13.8521 80.9565 15.2099 80.9744C15.835 80.9882 16.4492 80.9961 17.0683 80.9961C17.808 81.0001 18.5407 81.0001 19.2822 81.0001H222.729C223.455 81.0001 224.194 81.0001 224.921 80.9961C225.537 80.9961 226.169 80.9882 226.785 80.9744C228.141 80.9575 229.493 80.8378 230.83 80.6164C232.172 80.3842 233.473 79.9537 234.689 79.339C235.899 78.7236 237.004 77.9178 237.959 76.9522C238.922 75.9948 239.729 74.8916 240.349 73.6832C240.96 72.469 241.382 71.1687 241.601 69.827C241.826 68.4869 241.952 67.1319 241.976 65.7732C241.984 65.1442 241.984 64.5351 241.984 63.9063C242 63.1706 242 62.439 242 61.6914V19.3108C242 18.5692 242 17.8336 241.984 17.0999C241.984 16.479 241.984 15.8561 241.976 15.2351C241.952 13.8763 241.826 12.5212 241.601 11.1811C241.381 9.84019 240.959 8.54059 240.349 7.32683C239.101 4.89091 237.121 2.90809 234.689 1.65724C233.473 1.04417 232.172 0.616228 230.83 0.387564C229.493 0.164374 228.141 0.0447069 226.785 0.0296252C226.169 0.0197432 225.537 0.00787668 224.921 0.00392793C224.194 -0.00012207 223.455 -0.00012207 222.729 -0.00012207V0.00014118Z" fill="#A6A6A6"/>
<path d="M17.0782 79.2281C16.462 79.2281 15.8608 79.2202 15.2494 79.2064C13.983 79.1899 12.7196 79.0795 11.4694 78.8761C10.3037 78.6751 9.17449 78.3012 8.11895 77.7667C7.07309 77.2366 6.11917 76.5415 5.29376 75.708C4.45639 74.8844 3.75925 73.9292 3.22995 72.8801C2.69482 71.8243 2.32448 70.6925 2.13183 69.5243C1.92378 68.269 1.81122 66.9998 1.79511 65.7274C1.78229 65.3004 1.7655 63.8784 1.7655 63.8784V17.0998C1.7655 17.0998 1.78338 15.6997 1.79521 15.2883C1.81063 14.018 1.92254 12.7507 2.12997 11.4974C2.32298 10.326 2.6936 9.19094 3.22902 8.13163C3.75637 7.08331 4.44965 6.12734 5.28197 5.30078C6.11335 4.46636 7.07032 3.7677 8.11796 3.23028C9.17108 2.69747 10.2982 2.32616 11.4615 2.1288C12.7158 1.92339 13.9836 1.81234 15.2544 1.79658L17.0792 1.77185H224.911L226.758 1.79757C228.017 1.81255 229.273 1.92261 230.516 2.12681C231.691 2.32665 232.83 2.70055 233.895 3.23621C235.994 4.31927 237.702 6.03278 238.779 8.13657C239.306 9.18857 239.671 10.3143 239.861 11.4756C240.071 12.7392 240.189 14.0165 240.213 15.2972C240.219 15.8707 240.219 16.4867 240.219 17.0998C240.235 17.8591 240.235 18.5819 240.235 19.3106V61.6912C240.235 62.4269 240.235 63.1447 240.219 63.8685C240.219 64.527 240.219 65.1302 240.211 65.7511C240.187 67.009 240.072 68.2635 239.865 69.5044C239.676 70.6811 239.308 71.8217 238.773 72.8862C238.24 73.9239 237.547 74.8708 236.719 75.6922C235.893 76.5302 234.937 77.2293 233.889 77.7628C232.827 78.3014 231.69 78.6768 230.516 78.8761C229.266 79.0806 228.002 79.191 226.736 79.2064C226.143 79.2202 225.523 79.2281 224.921 79.2281L222.729 79.2321L17.0782 79.2281Z" fill="black"/>
<path d="M50.0908 41.1088C50.1125 39.4186 50.5609 37.7614 51.3941 36.2914C52.2274 34.8213 53.4185 33.5862 54.8565 32.7009C53.943 31.3945 52.7378 30.3193 51.3366 29.5608C49.9355 28.8024 48.3771 28.3815 46.7851 28.3316C43.3891 27.9747 40.0969 30.3664 38.3663 30.3664C36.6023 30.3664 33.9379 28.367 31.0688 28.4262C29.2129 28.4862 27.4043 29.0266 25.819 29.9946C24.2338 30.9627 22.926 32.3254 22.0231 33.9501C18.1119 40.7306 21.0293 50.6958 24.7759 56.1766C26.6503 58.8605 28.8411 61.8584 31.7076 61.7521C34.5127 61.6356 35.5604 59.961 38.9464 59.961C42.3009 59.961 43.2838 61.7521 46.2085 61.6845C49.2185 61.6356 51.115 58.9887 52.9237 56.2795C54.2705 54.3671 55.3069 52.2536 55.9944 50.0171C54.2457 49.2765 52.7534 48.0369 51.7036 46.4527C50.6537 44.8686 50.0928 43.01 50.0908 41.1088Z" fill="white"/>
<path d="M44.5666 24.7271C46.2078 22.7543 47.0163 20.2186 46.8205 17.6586C44.3132 17.9223 41.9971 19.1222 40.3337 21.0193C39.5205 21.9461 38.8976 23.0242 38.5007 24.1922C38.1038 25.3602 37.9408 26.595 38.0208 27.8261C39.2749 27.839 40.5156 27.5668 41.6494 27.03C42.7833 26.4932 43.7807 25.7058 44.5666 24.7271Z" fill="white"/>
<path d="M85.5491 54.9578H75.9766L73.6778 61.7546H69.6232L78.6901 36.6082H82.9026L91.9696 61.7546H87.8459L85.5491 54.9578ZM76.968 51.8214H84.5558L80.8152 40.7907H80.7106L76.968 51.8214Z" fill="white"/>
<path d="M111.551 52.5887C111.551 58.286 108.506 61.9464 103.91 61.9464C102.746 62.0074 101.588 61.7388 100.569 61.1716C99.5504 60.6043 98.7117 59.7612 98.1492 58.7388H98.0622V67.8196H94.3039V43.4208H97.9418V46.4702H98.0109C98.5993 45.4527 99.4522 44.6139 100.479 44.0432C101.505 43.4725 102.667 43.1911 103.841 43.229C108.488 43.229 111.551 46.9072 111.551 52.5887ZM107.688 52.5887C107.688 48.8769 105.772 46.4365 102.849 46.4365C99.9779 46.4365 98.0464 48.9282 98.0464 52.5887C98.0464 56.2827 99.9779 58.7566 102.849 58.7566C105.772 58.7566 107.688 56.3341 107.688 52.5887Z" fill="white"/>
<path d="M131.703 52.5887C131.703 58.286 128.658 61.9464 124.062 61.9464C122.898 62.0074 121.74 61.7388 120.721 61.1715C119.702 60.6043 118.864 59.7612 118.301 58.7388H118.214V67.8196H114.456V43.4208H118.094V46.4701H118.163C118.751 45.4527 119.604 44.6139 120.631 44.0432C121.657 43.4724 122.819 43.1911 123.993 43.229C128.64 43.229 131.703 46.9072 131.703 52.5887ZM127.84 52.5887C127.84 48.8768 125.924 46.4365 123.002 46.4365C120.13 46.4365 118.199 48.9282 118.199 52.5887C118.199 56.2827 120.13 58.7566 123.002 58.7566C125.924 58.7566 127.84 56.3341 127.84 52.5887H127.84Z" fill="white"/>
<path d="M145.022 54.7481C145.301 57.2418 147.72 58.8791 151.026 58.8791C154.194 58.8791 156.473 57.2418 156.473 54.9933C156.473 53.0414 155.098 51.8727 151.844 51.0718L148.589 50.2867C143.977 49.1714 141.837 47.0119 141.837 43.5077C141.837 39.169 145.613 36.1888 150.975 36.1888C156.281 36.1888 159.919 39.169 160.041 43.5077H156.248C156.02 40.9982 153.949 39.4834 150.921 39.4834C147.894 39.4834 145.822 41.016 145.822 43.2467C145.822 45.0245 147.145 46.0706 150.382 46.8714L153.149 47.5517C158.301 48.7719 160.442 50.8444 160.442 54.5225C160.442 59.2271 156.7 62.1736 150.747 62.1736C145.178 62.1736 141.418 59.2963 141.175 54.748L145.022 54.7481Z" fill="white"/>
<path d="M168.553 39.082V43.4208H172.035V46.4009H168.553V56.5081C168.553 58.0783 169.251 58.81 170.781 58.81C171.194 58.8028 171.607 58.7737 172.017 58.7229V61.6852C171.329 61.814 170.63 61.8723 169.93 61.8593C166.223 61.8593 164.777 60.4651 164.777 56.9095V46.4009H162.115V43.4208H164.777V39.082H168.553Z" fill="white"/>
<path d="M174.052 52.5886C174.052 46.8201 177.445 43.1953 182.735 43.1953C188.044 43.1953 191.421 46.8201 191.421 52.5886C191.421 58.3729 188.062 61.9819 182.735 61.9819C177.411 61.9819 174.052 58.3729 174.052 52.5886ZM187.592 52.5886C187.592 48.6316 185.781 46.2961 182.735 46.2961C179.69 46.2961 177.881 48.6494 177.881 52.5886C177.881 56.5615 179.69 58.8792 182.735 58.8792C185.781 58.8792 187.592 56.5615 187.592 52.5886H187.592Z" fill="white"/>
<path d="M194.52 43.4207H198.104V46.5413H198.191C198.434 45.5667 199.004 44.7054 199.806 44.1022C200.608 43.4989 201.593 43.1906 202.595 43.2289C203.028 43.2274 203.46 43.2745 203.883 43.3693V46.8893C203.336 46.722 202.766 46.6452 202.194 46.6619C201.648 46.6397 201.104 46.7361 200.599 46.9445C200.094 47.1528 199.639 47.4682 199.267 47.8689C198.895 48.2696 198.614 48.7462 198.443 49.266C198.273 49.7858 198.216 50.3364 198.278 50.88V61.7545H194.52L194.52 43.4207Z" fill="white"/>
<path d="M221.211 56.3697C220.705 59.6979 217.468 61.9819 213.327 61.9819C208.001 61.9819 204.695 58.4085 204.695 52.6756C204.695 46.925 208.018 43.1953 213.169 43.1953C218.235 43.1953 221.42 46.6797 221.42 52.2386V53.528H208.488V53.7554C208.429 54.4301 208.513 55.1098 208.736 55.7494C208.959 56.389 209.315 56.9738 209.781 57.4649C210.247 57.9561 210.811 58.3424 211.438 58.5981C212.064 58.8539 212.738 58.9733 213.414 58.9484C214.302 59.0317 215.193 58.8257 215.955 58.3611C216.717 57.8965 217.309 57.1981 217.642 56.3697L221.211 56.3697ZM208.506 50.8978H217.66C217.694 50.2911 217.602 49.684 217.39 49.1146C217.178 48.5451 216.852 48.0256 216.43 47.5887C216.008 47.1518 215.501 46.8069 214.94 46.5756C214.379 46.3443 213.776 46.2316 213.169 46.2447C212.557 46.241 211.95 46.3588 211.384 46.5911C210.818 46.8235 210.303 47.1658 209.869 47.5984C209.436 48.031 209.092 48.5453 208.858 49.1116C208.624 49.6779 208.505 50.285 208.506 50.8978V50.8978Z" fill="white"/>
<path d="M76.497 17.6803C77.2849 17.6237 78.0755 17.7429 78.8119 18.0293C79.5483 18.3157 80.212 18.7622 80.7551 19.3365C81.2983 19.9109 81.7074 20.5988 81.9529 21.3506C82.1984 22.1024 82.2742 22.8994 82.1749 23.6841C82.1749 27.5443 80.0913 29.7632 76.497 29.7632H72.1383V17.6803H76.497ZM74.0125 28.0544H76.2876C76.8506 28.0881 77.4141 27.9957 77.9369 27.7838C78.4598 27.572 78.9289 27.2461 79.3101 26.8298C79.6913 26.4135 79.975 25.9174 80.1405 25.3775C80.3061 24.8376 80.3493 24.2675 80.2671 23.7088C80.3433 23.1522 80.2957 22.5857 80.1276 22.0497C79.9595 21.5138 79.6751 21.0217 79.2948 20.6088C78.9145 20.1958 78.4476 19.8722 77.9277 19.6611C77.4078 19.45 76.8478 19.3567 76.2876 19.3878H74.0125V28.0544Z" fill="white"/>
<path d="M84.292 25.1999C84.2347 24.6007 84.3032 23.9961 84.493 23.4249C84.6827 22.8537 84.9896 22.3285 85.394 21.8831C85.7983 21.4376 86.2912 21.0817 86.841 20.8381C87.3908 20.5946 87.9853 20.4688 88.5865 20.4688C89.1876 20.4688 89.7822 20.5946 90.332 20.8381C90.8817 21.0817 91.3746 21.4376 91.7789 21.8831C92.1833 22.3285 92.4902 22.8537 92.68 23.4249C92.8697 23.9961 92.9382 24.6007 92.8809 25.1999C92.9393 25.7998 92.8716 26.4052 92.6824 26.9773C92.4931 27.5494 92.1864 28.0756 91.7819 28.5219C91.3775 28.9682 90.8842 29.3249 90.3339 29.569C89.7836 29.8131 89.1884 29.9392 88.5865 29.9392C87.9846 29.9392 87.3893 29.8131 86.839 29.569C86.2887 29.3249 85.7955 28.9682 85.391 28.5219C84.9866 28.0756 84.6798 27.5494 84.4906 26.9773C84.3013 26.4052 84.2336 25.7998 84.292 25.1999ZM91.0324 25.1999C91.0324 23.2234 90.1456 22.0675 88.5894 22.0675C87.0273 22.0675 86.1485 23.2234 86.1485 25.1999C86.1485 27.1923 87.0273 28.3393 88.5894 28.3393C90.1457 28.3393 91.0324 27.1844 91.0324 25.1999H91.0324Z" fill="white"/>
<path d="M104.298 29.763H102.434L100.552 23.0472H100.409L98.5352 29.763H96.6887L94.1785 20.6445H96.0014L97.6327 27.6024H97.767L99.6392 20.6445H101.363L103.236 27.6024H103.378L105.001 20.6445H106.798L104.298 29.763Z" fill="white"/>
<path d="M108.91 20.6446H110.64V22.0931H110.774C111.002 21.5729 111.386 21.1367 111.873 20.8455C112.36 20.5543 112.926 20.4225 113.491 20.4686C113.934 20.4352 114.379 20.5021 114.793 20.6643C115.207 20.8265 115.579 21.0798 115.882 21.4055C116.184 21.7313 116.41 22.121 116.542 22.5459C116.674 22.9708 116.708 23.4199 116.643 23.86V29.7629H114.846V24.3119C114.846 22.8466 114.21 22.1179 112.881 22.1179C112.58 22.1038 112.28 22.1551 112.001 22.2681C111.722 22.3812 111.47 22.5534 111.264 22.7729C111.057 22.9923 110.9 23.2539 110.804 23.5397C110.708 23.8255 110.675 24.1287 110.707 24.4286V29.763H108.91L108.91 20.6446Z" fill="white"/>
<path d="M119.507 17.085H121.304V29.763H119.507V17.085Z" fill="white"/>
<path d="M123.802 25.1998C123.745 24.6006 123.814 23.9959 124.004 23.4247C124.193 22.8535 124.5 22.3283 124.905 21.8828C125.309 21.4374 125.802 21.0814 126.352 20.8379C126.902 20.5943 127.496 20.4685 128.097 20.4685C128.699 20.4685 129.293 20.5943 129.843 20.8379C130.393 21.0814 130.886 21.4374 131.29 21.8828C131.695 22.3283 132.002 22.8535 132.191 23.4247C132.381 23.9959 132.45 24.6006 132.392 25.1998C132.451 25.7997 132.383 26.4052 132.194 26.9773C132.004 27.5494 131.698 28.0755 131.293 28.5218C130.889 28.9682 130.395 29.3248 129.845 29.5689C129.295 29.813 128.699 29.939 128.097 29.939C127.496 29.939 126.9 29.813 126.35 29.5689C125.8 29.3248 125.306 28.9682 124.902 28.5218C124.497 28.0755 124.191 27.5494 124.001 26.9773C123.812 26.4052 123.744 25.7997 123.802 25.1998ZM130.543 25.1998C130.543 23.2233 129.656 22.0674 128.1 22.0674C126.538 22.0674 125.659 23.2233 125.659 25.1999C125.659 27.1922 126.538 28.3392 128.1 28.3392C129.656 28.3392 130.543 27.1843 130.543 25.1998H130.543Z" fill="white"/>
<path d="M134.284 27.1842C134.284 25.5429 135.505 24.5966 137.671 24.4621L140.138 24.3198V23.5327C140.138 22.5696 139.502 22.0258 138.274 22.0258C137.271 22.0258 136.575 22.3946 136.376 23.0393H134.636C134.82 21.4731 136.291 20.4685 138.357 20.4685C140.64 20.4685 141.927 21.6066 141.927 23.5327V29.7629H140.197V28.4815H140.055C139.767 28.9412 139.361 29.3159 138.881 29.5674C138.4 29.8189 137.862 29.9382 137.32 29.9132C136.938 29.953 136.551 29.9121 136.186 29.7933C135.82 29.6744 135.483 29.4802 135.197 29.2231C134.911 28.9659 134.682 28.6517 134.525 28.3005C134.368 27.9493 134.286 27.5691 134.284 27.1842ZM140.138 26.4051V25.6427L137.914 25.7851C136.66 25.8691 136.091 26.2963 136.091 27.1002C136.091 27.9208 136.802 28.3984 137.78 28.3984C138.067 28.4274 138.356 28.3985 138.631 28.3132C138.906 28.228 139.161 28.0882 139.381 27.9023C139.601 27.7163 139.782 27.4879 139.912 27.2307C140.042 26.9735 140.119 26.6927 140.138 26.4051Z" fill="white"/>
<path d="M144.289 25.1998C144.289 22.3186 145.769 20.4933 148.069 20.4933C148.638 20.467 149.203 20.6035 149.698 20.8868C150.192 21.1701 150.596 21.5885 150.862 22.093H150.996V17.085H152.793V29.763H151.071V28.3223H150.929C150.643 28.8235 150.225 29.2367 149.721 29.5171C149.217 29.7975 148.646 29.9345 148.069 29.9132C145.753 29.9133 144.289 28.088 144.289 25.1998ZM146.146 25.1998C146.146 27.1339 147.056 28.2976 148.579 28.2976C150.094 28.2976 151.03 27.1171 151.03 25.2077C151.03 23.3073 150.084 22.1099 148.579 22.1099C147.066 22.1099 146.146 23.2816 146.146 25.1998H146.146Z" fill="white"/>
<path d="M160.229 25.1999C160.172 24.6007 160.24 23.9961 160.43 23.4249C160.62 22.8537 160.927 22.3285 161.331 21.8831C161.735 21.4376 162.228 21.0817 162.778 20.8381C163.328 20.5946 163.922 20.4688 164.524 20.4688C165.125 20.4688 165.719 20.5946 166.269 20.8381C166.819 21.0817 167.312 21.4376 167.716 21.8831C168.12 22.3285 168.427 22.8537 168.617 23.4249C168.807 23.9961 168.875 24.6007 168.818 25.1999C168.876 25.7998 168.809 26.4052 168.619 26.9773C168.43 27.5494 168.123 28.0756 167.719 28.5219C167.315 28.9682 166.821 29.3249 166.271 29.569C165.721 29.8131 165.125 29.9392 164.524 29.9392C163.922 29.9392 163.326 29.8131 162.776 29.569C162.226 29.3249 161.733 28.9682 161.328 28.5219C160.924 28.0756 160.617 27.5494 160.428 26.9773C160.238 26.4052 160.171 25.7998 160.229 25.1999ZM166.969 25.1999C166.969 23.2234 166.083 22.0675 164.526 22.0675C162.964 22.0675 162.086 23.2234 162.086 25.1999C162.086 27.1923 162.964 28.3393 164.526 28.3393C166.083 28.3393 166.969 27.1844 166.969 25.1999Z" fill="white"/>
<path d="M171.229 20.6446H172.959V22.0931H173.094C173.322 21.5729 173.706 21.1367 174.193 20.8455C174.68 20.5543 175.246 20.4225 175.811 20.4686C176.254 20.4352 176.699 20.5021 177.113 20.6643C177.527 20.8265 177.899 21.0798 178.201 21.4055C178.504 21.7313 178.73 22.121 178.862 22.5459C178.994 22.9708 179.028 23.4199 178.963 23.86V29.7629H177.166V24.3119C177.166 22.8466 176.53 22.1179 175.201 22.1179C174.9 22.1038 174.6 22.1551 174.321 22.2681C174.041 22.3812 173.79 22.5534 173.583 22.7729C173.377 22.9923 173.22 23.2539 173.124 23.5397C173.028 23.8255 172.995 24.1287 173.027 24.4286V29.763H171.229V20.6446Z" fill="white"/>
<path d="M189.118 18.3743V20.686H191.091V22.2018H189.118V26.8905C189.118 27.8457 189.511 28.2639 190.406 28.2639C190.635 28.2632 190.864 28.2493 191.091 28.2224V29.7214C190.769 29.7792 190.442 29.8099 190.114 29.8133C188.115 29.8133 187.319 29.1093 187.319 27.3513V22.2017H185.874V20.6859H187.319V18.3743H189.118Z" fill="white"/>
<path d="M193.546 17.085H195.327V22.1099H195.47C195.709 21.5848 196.103 21.1462 196.6 20.8539C197.097 20.5616 197.672 20.4298 198.246 20.4764C198.687 20.4524 199.128 20.5261 199.537 20.6923C199.946 20.8584 200.313 21.1129 200.613 21.4376C200.912 21.7622 201.137 22.1491 201.27 22.5706C201.403 22.9921 201.441 23.4377 201.382 23.8758V29.763H199.584V24.3198C199.584 22.8633 198.906 22.1257 197.636 22.1257C197.327 22.1003 197.017 22.1428 196.726 22.2503C196.435 22.3577 196.171 22.5275 195.953 22.7477C195.735 22.9678 195.567 23.2332 195.462 23.525C195.356 23.8169 195.316 24.1283 195.343 24.4374V29.7629H193.546L193.546 17.085Z" fill="white"/>
<path d="M211.862 27.3009C211.617 28.1343 211.088 28.8552 210.367 29.3374C209.646 29.8197 208.778 30.0326 207.916 29.939C207.316 29.9548 206.72 29.8398 206.168 29.6018C205.617 29.3638 205.125 29.0085 204.724 28.5607C204.324 28.1129 204.026 27.5833 203.851 27.0085C203.675 26.4338 203.627 25.8277 203.709 25.2324C203.629 24.6353 203.678 24.0279 203.853 23.4515C204.028 22.875 204.325 22.3429 204.723 21.8912C205.121 21.4395 205.611 21.0787 206.161 20.8332C206.71 20.5878 207.306 20.4634 207.908 20.4685C210.442 20.4685 211.97 22.2019 211.97 25.0653V25.6932H205.54V25.7941C205.512 26.1287 205.554 26.4655 205.663 26.7829C205.773 27.1003 205.947 27.3914 206.175 27.6373C206.404 27.8833 206.681 28.0787 206.989 28.2111C207.297 28.3436 207.63 28.41 207.965 28.4063C208.395 28.458 208.831 28.3805 209.216 28.1836C209.602 27.9868 209.921 27.6795 210.132 27.3009L211.862 27.3009ZM205.54 24.3623H210.139C210.162 24.0563 210.121 23.7489 210.017 23.4599C209.914 23.1709 209.752 22.9066 209.541 22.6842C209.33 22.4617 209.075 22.2859 208.792 22.1681C208.509 22.0503 208.204 21.9931 207.898 22.0001C207.587 21.9962 207.279 22.0547 206.991 22.172C206.703 22.2893 206.441 22.4632 206.221 22.6834C206.002 22.9035 205.828 23.1655 205.711 23.4538C205.594 23.7422 205.536 24.0511 205.54 24.3623H205.54Z" fill="white"/>
</g>
<defs>
<clipPath id="clip0">
<rect width="242" height="81" fill="white"/>
</clipPath>
</defs>
</svg>
