<svg width="242" height="81" viewBox="0 0 242 81" fill="none" xmlns="http://www.w3.org/2000/svg">
<g clip-path="url(#clip0)">
<path d="M222.729 0.00014118H19.2822C18.5407 0.00014118 17.808 0.00014118 17.0683 0.00419118C16.4492 0.00824118 15.835 0.0200064 15.2099 0.0299087C13.852 0.0459098 12.4972 0.165536 11.1574 0.387746C9.81946 0.614795 8.52345 1.04285 7.31318 1.65742C6.1044 2.2772 4.99989 3.08253 4.03974 4.04421C3.07455 5.00318 2.26999 6.11162 1.65699 7.32692C1.04231 8.53979 0.616083 9.83949 0.393039 11.1811C0.167875 12.5211 0.0467125 13.8765 0.0306383 15.2352C0.0118711 15.8561 0.00988918 16.479 0 17.0999V63.9063C0.00988918 64.5351 0.0118711 65.1442 0.0306383 65.7732C0.0467174 67.1318 0.16788 68.4871 0.393039 69.827C0.615467 71.1694 1.04172 72.4699 1.65699 73.6832C2.26971 74.8946 3.07438 75.9985 4.03974 76.9522C4.99625 77.9181 6.10147 78.724 7.31318 79.339C8.52344 79.9553 9.81931 80.3859 11.1574 80.6164C12.4974 80.8368 13.8521 80.9565 15.2099 80.9744C15.835 80.9882 16.4492 80.9961 17.0683 80.9961C17.808 81.0001 18.5407 81.0001 19.2822 81.0001H222.729C223.455 81.0001 224.194 81.0001 224.921 80.9961C225.537 80.9961 226.169 80.9882 226.785 80.9744C228.141 80.9575 229.493 80.8378 230.83 80.6164C232.172 80.3842 233.473 79.9537 234.689 79.339C235.899 78.7236 237.004 77.9178 237.959 76.9522C238.922 75.9948 239.729 74.8916 240.349 73.6832C240.96 72.469 241.382 71.1687 241.601 69.827C241.826 68.4869 241.952 67.1319 241.976 65.7732C241.984 65.1442 241.984 64.5351 241.984 63.9063C242 63.1706 242 62.439 242 61.6914V19.3108C242 18.5692 242 17.8336 241.984 17.0999C241.984 16.479 241.984 15.8561 241.976 15.2351C241.952 13.8763 241.826 12.5212 241.601 11.1811C241.381 9.84019 240.959 8.54059 240.349 7.32683C239.101 4.89091 237.121 2.90809 234.689 1.65724C233.473 1.04417 232.172 0.616228 230.83 0.387564C229.493 0.164374 228.141 0.0447069 226.785 0.0296252C226.169 0.0197432 225.537 0.00787668 224.921 0.00392793C224.194 -0.00012207 223.455 -0.00012207 222.729 -0.00012207V0.00014118Z" fill="#A6A6A6"/>
<path d="M17.0782 79.2281C16.462 79.2281 15.8608 79.2202 15.2494 79.2064C13.983 79.1899 12.7196 79.0795 11.4694 78.8761C10.3037 78.6751 9.17449 78.3012 8.11895 77.7667C7.07309 77.2366 6.11917 76.5415 5.29376 75.708C4.45639 74.8844 3.75925 73.9292 3.22995 72.8801C2.69482 71.8243 2.32448 70.6925 2.13183 69.5243C1.92378 68.269 1.81122 66.9998 1.79511 65.7274C1.78229 65.3004 1.7655 63.8784 1.7655 63.8784V17.0998C1.7655 17.0998 1.78338 15.6997 1.79521 15.2883C1.81063 14.018 1.92254 12.7507 2.12997 11.4974C2.32298 10.326 2.6936 9.19094 3.22902 8.13163C3.75637 7.08331 4.44965 6.12734 5.28197 5.30078C6.11335 4.46636 7.07032 3.7677 8.11796 3.23028C9.17108 2.69747 10.2982 2.32616 11.4615 2.1288C12.7158 1.92339 13.9836 1.81234 15.2544 1.79658L17.0792 1.77185H224.911L226.758 1.79757C228.017 1.81255 229.273 1.92261 230.516 2.12681C231.691 2.32665 232.83 2.70055 233.895 3.23621C235.994 4.31927 237.702 6.03278 238.779 8.13657C239.306 9.18857 239.671 10.3143 239.861 11.4756C240.071 12.7392 240.189 14.0165 240.213 15.2972C240.219 15.8707 240.219 16.4867 240.219 17.0998C240.235 17.8591 240.235 18.5819 240.235 19.3106V61.6912C240.235 62.4269 240.235 63.1447 240.219 63.8685C240.219 64.527 240.219 65.1302 240.211 65.7511C240.187 67.009 240.072 68.2635 239.865 69.5044C239.676 70.6811 239.308 71.8217 238.773 72.8862C238.24 73.9239 237.547 74.8708 236.719 75.6922C235.893 76.5302 234.937 77.2293 233.889 77.7628C232.827 78.3014 231.69 78.6768 230.516 78.8761C229.266 79.0806 228.002 79.191 226.736 79.2064C226.143 79.2202 225.523 79.2281 224.921 79.2281L222.729 79.2321L17.0782 79.2281Z" fill="black"/>
<path d="M50.0908 41.1088C50.1125 39.4186 50.5609 37.7614 51.3941 36.2914C52.2274 34.8213 53.4185 33.5862 54.8565 32.7009C53.943 31.3945 52.7378 30.3193 51.3366 29.5608C49.9355 28.8024 48.3771 28.3815 46.7851 28.3316C43.3891 27.9747 40.0969 30.3664 38.3663 30.3664C36.6023 30.3664 33.9379 28.367 31.0688 28.4262C29.2129 28.4862 27.4043 29.0266 25.819 29.9946C24.2338 30.9627 22.926 32.3254 22.0231 33.9501C18.1119 40.7306 21.0293 50.6958 24.7759 56.1766C26.6503 58.8605 28.8411 61.8584 31.7076 61.7521C34.5127 61.6356 35.5604 59.961 38.9464 59.961C42.3009 59.961 43.2838 61.7521 46.2085 61.6845C49.2185 61.6356 51.115 58.9887 52.9237 56.2795C54.2705 54.3671 55.3069 52.2536 55.9944 50.0171C54.2457 49.2765 52.7534 48.0369 51.7036 46.4527C50.6537 44.8686 50.0928 43.01 50.0908 41.1088Z" fill="white"/>
<path d="M44.5666 24.7271C46.2078 22.7543 47.0163 20.2186 46.8205 17.6586C44.3132 17.9223 41.9971 19.1222 40.3337 21.0193C39.5205 21.9461 38.8976 23.0242 38.5007 24.1922C38.1038 25.3602 37.9408 26.595 38.0208 27.8261C39.2749 27.839 40.5156 27.5668 41.6494 27.03C42.7833 26.4932 43.7807 25.7058 44.5666 24.7271Z" fill="white"/>
<path d="M85.5491 54.9578H75.9766L73.6778 61.7546H69.6232L78.6901 36.6082H82.9026L91.9696 61.7546H87.8459L85.5491 54.9578ZM76.968 51.8214H84.5558L80.8152 40.7907H80.7106L76.968 51.8214Z" fill="white"/>
<path d="M111.551 52.5887C111.551 58.286 108.506 61.9464 103.91 61.9464C102.746 62.0074 101.588 61.7388 100.569 61.1716C99.5504 60.6043 98.7117 59.7612 98.1492 58.7388H98.0622V67.8196H94.3039V43.4208H97.9418V46.4702H98.0109C98.5993 45.4527 99.4522 44.6139 100.479 44.0432C101.505 43.4725 102.667 43.1911 103.841 43.229C108.488 43.229 111.551 46.9072 111.551 52.5887ZM107.688 52.5887C107.688 48.8769 105.772 46.4365 102.849 46.4365C99.9779 46.4365 98.0464 48.9282 98.0464 52.5887C98.0464 56.2827 99.9779 58.7566 102.849 58.7566C105.772 58.7566 107.688 56.3341 107.688 52.5887Z" fill="white"/>
<path d="M131.703 52.5887C131.703 58.286 128.658 61.9464 124.062 61.9464C122.898 62.0074 121.74 61.7388 120.721 61.1715C119.702 60.6043 118.864 59.7612 118.301 58.7388H118.214V67.8196H114.456V43.4208H118.094V46.4701H118.163C118.751 45.4527 119.604 44.6139 120.631 44.0432C121.657 43.4724 122.819 43.1911 123.993 43.229C128.64 43.229 131.703 46.9072 131.703 52.5887ZM127.84 52.5887C127.84 48.8768 125.924 46.4365 123.002 46.4365C120.13 46.4365 118.199 48.9282 118.199 52.5887C118.199 56.2827 120.13 58.7566 123.002 58.7566C125.924 58.7566 127.84 56.3341 127.84 52.5887H127.84Z" fill="white"/>
<path d="M145.022 54.7481C145.301 57.2418 147.72 58.8791 151.026 58.8791C154.194 58.8791 156.473 57.2418 156.473 54.9933C156.473 53.0414 155.098 51.8727 151.844 51.0718L148.589 50.2867C143.977 49.1714 141.837 47.0119 141.837 43.5077C141.837 39.169 145.613 36.1888 150.975 36.1888C156.281 36.1888 159.919 39.169 160.041 43.5077H156.248C156.02 40.9982 153.949 39.4834 150.921 39.4834C147.894 39.4834 145.822 41.016 145.822 43.2467C145.822 45.0245 147.145 46.0706 150.382 46.8714L153.149 47.5517C158.301 48.7719 160.442 50.8444 160.442 54.5225C160.442 59.2271 156.7 62.1736 150.747 62.1736C145.178 62.1736 141.418 59.2963 141.175 54.748L145.022 54.7481Z" fill="white"/>
<path d="M168.553 39.082V43.4208H172.035V46.4009H168.553V56.5081C168.553 58.0783 169.251 58.81 170.781 58.81C171.194 58.8028 171.607 58.7737 172.017 58.7229V61.6852C171.329 61.814 170.63 61.8723 169.93 61.8593C166.223 61.8593 164.777 60.4651 164.777 56.9095V46.4009H162.115V43.4208H164.777V39.082H168.553Z" fill="white"/>
<path d="M174.052 52.5886C174.052 46.8201 177.445 43.1953 182.735 43.1953C188.044 43.1953 191.421 46.8201 191.421 52.5886C191.421 58.3729 188.062 61.9819 182.735 61.9819C177.411 61.9819 174.052 58.3729 174.052 52.5886ZM187.592 52.5886C187.592 48.6316 185.781 46.2961 182.735 46.2961C179.69 46.2961 177.881 48.6494 177.881 52.5886C177.881 56.5615 179.69 58.8792 182.735 58.8792C185.781 58.8792 187.592 56.5615 187.592 52.5886H187.592Z" fill="white"/>
<path d="M194.52 43.4207H198.104V46.5413H198.191C198.434 45.5667 199.004 44.7054 199.806 44.1022C200.608 43.4989 201.593 43.1906 202.595 43.2289C203.028 43.2274 203.46 43.2745 203.883 43.3693V46.8893C203.336 46.722 202.766 46.6452 202.194 46.6619C201.648 46.6397 201.104 46.7361 200.599 46.9445C200.094 47.1528 199.639 47.4682 199.267 47.8689C198.895 48.2696 198.614 48.7462 198.443 49.266C198.273 49.7858 198.216 50.3364 198.278 50.88V61.7545H194.52L194.52 43.4207Z" fill="white"/>
<path d="M221.211 56.3697C220.705 59.6979 217.468 61.9819 213.327 61.9819C208.001 61.9819 204.695 58.4085 204.695 52.6756C204.695 46.925 208.018 43.1953 213.169 43.1953C218.235 43.1953 221.42 46.6797 221.42 52.2386V53.528H208.488V53.7554C208.429 54.4301 208.513 55.1098 208.736 55.7494C208.959 56.389 209.315 56.9738 209.781 57.4649C210.247 57.9561 210.811 58.3424 211.438 58.5981C212.064 58.8539 212.738 58.9733 213.414 58.9484C214.302 59.0317 215.193 58.8257 215.955 58.3611C216.717 57.8965 217.309 57.1981 217.642 56.3697L221.211 56.3697ZM208.506 50.8978H217.66C217.694 50.2911 217.602 49.684 217.39 49.1146C217.178 48.5451 216.852 48.0256 216.43 47.5887C216.008 47.1518 215.501 46.8069 214.94 46.5756C214.379 46.3443 213.776 46.2316 213.169 46.2447C212.557 46.241 211.95 46.3588 211.384 46.5911C210.818 46.8235 210.303 47.1658 209.869 47.5984C209.436 48.031 209.092 48.5453 208.858 49.1116C208.624 49.6779 208.505 50.285 208.506 50.8978V50.8978Z" fill="white"/>
<path d="M74.7354 24.4365H76.4668C78.0576 24.4365 79.0068 25.166 79.0068 26.3965C79.0068 27.6094 78.0049 28.4355 76.5195 28.4355C74.9727 28.4355 73.918 27.6885 73.8213 26.502H71.6416C71.7559 28.8047 73.6895 30.3164 76.5107 30.3164C79.2793 30.3164 81.3359 28.6992 81.3359 26.5283C81.3359 24.8232 80.2725 23.6104 78.5674 23.4082V23.3379C79.9736 23.0215 80.9404 21.8438 80.9404 20.4199C80.9404 18.4072 79.1475 17.001 76.5547 17.001C73.8301 17.001 72.0635 18.4512 71.9492 20.7627H74.0674C74.1641 19.5674 75.0869 18.8291 76.4932 18.8291C77.8818 18.8291 78.7432 19.5322 78.7432 20.6748C78.7432 21.8174 77.8027 22.6084 76.4229 22.6084H74.7354V24.4365Z" fill="white"/>
<path d="M87.5212 28.4971C86.5719 28.4971 85.9391 28.0137 85.9391 27.249C85.9391 26.5107 86.5456 26.0361 87.6003 25.9658L89.7536 25.834V26.5459C89.7536 27.6709 88.7604 28.4971 87.5212 28.4971ZM86.862 30.1494C88.0573 30.1494 89.2262 29.5254 89.7624 28.5146H89.8063V30H91.9157V23.584C91.9157 21.7119 90.4128 20.4902 88.1012 20.4902C85.7282 20.4902 84.2428 21.7383 84.1462 23.4785H86.1764C86.3171 22.7051 86.9762 22.2041 88.0133 22.2041C89.0944 22.2041 89.7536 22.7666 89.7536 23.7422V24.4102L87.2926 24.5508C85.0251 24.6914 83.7507 25.6846 83.7507 27.3369C83.7507 29.0156 85.0602 30.1494 86.862 30.1494Z" fill="white"/>
<path d="M99.4896 30C101.555 30 102.838 28.9541 102.838 27.3105C102.838 26.1592 102.012 25.3066 100.79 25.1572V25.0869C101.713 24.9287 102.425 24.0498 102.425 23.0654C102.425 21.5801 101.3 20.6836 99.4193 20.6836H94.9984V30H99.4896ZM97.1605 22.1689H98.9007C99.7796 22.1689 100.272 22.582 100.272 23.3291C100.272 24.1113 99.7533 24.5156 98.7337 24.5156H97.1605V22.1689ZM97.1605 25.9131H98.8568C100.035 25.9131 100.641 26.3438 100.641 27.1963C100.641 28.0488 100.078 28.5146 99.0326 28.5146H97.1605V25.9131Z" fill="white"/>
<path d="M109.015 28.4971C108.065 28.4971 107.433 28.0137 107.433 27.249C107.433 26.5107 108.039 26.0361 109.094 25.9658L111.247 25.834V26.5459C111.247 27.6709 110.254 28.4971 109.015 28.4971ZM108.355 30.1494C109.551 30.1494 110.72 29.5254 111.256 28.5146H111.3V30H113.409V23.584C113.409 21.7119 111.906 20.4902 109.595 20.4902C107.222 20.4902 105.736 21.7383 105.64 23.4785H107.67C107.811 22.7051 108.47 22.2041 109.507 22.2041C110.588 22.2041 111.247 22.7666 111.247 23.7422V24.4102L108.786 24.5508C106.519 24.6914 105.244 25.6846 105.244 27.3369C105.244 29.0156 106.554 30.1494 108.355 30.1494Z" fill="white"/>
<path d="M122.6 30H124.789V20.6836H122.6V24.3574H118.68V20.6836H116.492V30H118.68V26.0449H122.6V30Z" fill="white"/>
<path d="M135.219 20.6836H127.318V22.3711H130.174V30H132.363V22.3711H135.219V20.6836Z" fill="white"/>
<path d="M140.886 28.4971C139.937 28.4971 139.304 28.0137 139.304 27.249C139.304 26.5107 139.91 26.0361 140.965 25.9658L143.118 25.834V26.5459C143.118 27.6709 142.125 28.4971 140.886 28.4971ZM140.227 30.1494C141.422 30.1494 142.591 29.5254 143.127 28.5146H143.171V30H145.28V23.584C145.28 21.7119 143.777 20.4902 141.466 20.4902C139.093 20.4902 137.607 21.7383 137.511 23.4785H139.541C139.682 22.7051 140.341 22.2041 141.378 22.2041C142.459 22.2041 143.118 22.7666 143.118 23.7422V24.4102L140.657 24.5508C138.39 24.6914 137.115 25.6846 137.115 27.3369C137.115 29.0156 138.425 30.1494 140.227 30.1494Z" fill="white"/>
<path d="M157.635 25.0342L161.265 20.6836H158.734L155.614 24.5684H155.544V20.6836H153.382V24.5684H153.32L150.191 20.6836H147.633L151.307 25.0781L147.528 30H150.147L153.32 25.834H153.382V30H155.544V25.834H155.614L158.787 30H161.441L157.635 25.0342Z" fill="white"/>
<path d="M165.86 30L169.903 23.7422H169.973V30H172.126V20.6836H169.982L165.948 26.8975H165.877V20.6836H163.715V30H165.86Z" fill="white"/>
<path d="M182.548 20.6836H174.646V22.3711H177.503V30H179.691V22.3711H182.548V20.6836Z" fill="white"/>
<path d="M187.213 30L191.256 23.7422H191.326V30H193.479V20.6836H191.335L187.3 26.8975H187.23V20.6836H185.068V30H187.213Z" fill="white"/>
<path d="M204.918 30.1846C207.335 30.1846 208.847 28.998 208.847 27.2754C208.847 26.2207 208.223 25.4473 206.913 25.1836V25.1133C207.959 24.876 208.592 24.1025 208.592 23.1094C208.592 21.4922 207.247 20.4902 205.006 20.4902C202.65 20.4902 201.35 21.6328 201.156 23.3555H203.222C203.336 22.626 203.942 22.1865 204.936 22.1865C205.99 22.1865 206.474 22.6875 206.474 23.373C206.474 24.1113 205.981 24.5596 204.874 24.5596H203.582V26.0098H204.892C206.078 26.0098 206.685 26.4141 206.685 27.249C206.685 27.9961 206.043 28.5059 204.9 28.5059C203.872 28.5059 203.204 28.0928 203.02 27.293H200.91C201.086 29.2178 202.747 30.1846 204.918 30.1846Z" fill="white"/>
</g>
<defs>
<clipPath id="clip0">
<rect width="242" height="81" fill="white"/>
</clipPath>
</defs>
</svg>
