<svg width="245" height="81" viewBox="0 0 245 81" fill="none" xmlns="http://www.w3.org/2000/svg">
<path d="M235.009 81H9.0388C3.97707 81 0 76.545 0 70.875V10.125C0 4.455 3.97707 0 9.0388 0H235.009C240.07 0 244.048 4.455 244.048 10.125V70.875C244.048 76.3425 240.07 81 235.009 81Z" fill="black"/>
<path d="M235.009 1.62C239.167 1.62 242.601 5.4675 242.601 10.125V70.875C242.601 75.5325 239.167 79.38 235.009 79.38H9.0388C4.88095 79.38 1.44621 75.5325 1.44621 70.875V10.125C1.44621 5.4675 4.88095 1.62 9.0388 1.62H235.009ZM235.009 0H9.0388C3.97707 0 0 4.455 0 10.125V70.875C0 76.545 3.97707 81 9.0388 81H235.009C240.07 81 244.048 76.545 244.048 70.875V10.125C244.048 4.6575 240.07 0 235.009 0Z" fill="#A6A6A6"/>
<path d="M122.651 42.6568C118.246 42.6568 114.758 45.9651 114.758 50.5598C114.758 54.9708 118.246 58.4628 122.651 58.4628C127.057 58.4628 130.545 55.1546 130.545 50.5598C130.545 45.7813 127.057 42.6568 122.651 42.6568ZM122.651 55.1546C120.265 55.1546 118.246 53.1329 118.246 50.376C118.246 47.6192 120.265 45.5975 122.651 45.5975C125.038 45.5975 127.057 47.4354 127.057 50.376C127.057 53.1329 125.038 55.1546 122.651 55.1546ZM105.579 42.6568C101.173 42.6568 97.6854 45.9651 97.6854 50.5598C97.6854 54.9708 101.173 58.4628 105.579 58.4628C109.985 58.4628 113.473 55.1546 113.473 50.5598C113.473 45.7813 109.985 42.6568 105.579 42.6568ZM105.579 55.1546C103.193 55.1546 101.173 53.1329 101.173 50.376C101.173 47.6192 103.193 45.5975 105.579 45.5975C107.966 45.5975 109.985 47.4354 109.985 50.376C109.985 53.1329 107.966 55.1546 105.579 55.1546ZM85.2024 45.0461V48.3543H93.0961C92.9125 50.1922 92.1782 51.6626 91.2603 52.5815C90.1589 53.6843 88.3232 54.9708 85.2024 54.9708C80.2459 54.9708 76.5745 51.1112 76.5745 46.1489C76.5745 41.1865 80.4295 37.3269 85.2024 37.3269C87.7724 37.3269 89.7917 38.4297 91.2603 39.7162L93.6468 37.3269C91.6275 35.489 89.0575 34.0187 85.386 34.0187C78.7774 34.0187 73.0866 39.5324 73.0866 46.1489C73.0866 52.7653 78.7774 58.279 85.386 58.279C89.0575 58.279 91.6275 57.1763 93.8304 54.787C96.0332 52.5815 96.7675 49.4571 96.7675 47.0678C96.7675 46.3326 96.7675 45.5975 96.584 45.0461H85.2024ZM168.545 47.6192C167.81 45.7813 165.975 42.6568 161.936 42.6568C157.897 42.6568 154.593 45.7813 154.593 50.5598C154.593 54.9708 157.897 58.4628 162.303 58.4628C165.791 58.4628 167.994 56.2573 168.728 54.9708L166.158 53.1329C165.24 54.4194 164.139 55.3384 162.303 55.3384C160.467 55.3384 159.366 54.6032 158.448 52.9491L168.912 48.5381L168.545 47.6192ZM157.897 50.1922C157.897 47.2516 160.284 45.5975 161.936 45.5975C163.221 45.5975 164.506 46.3326 164.873 47.2516L157.897 50.1922ZM149.269 57.7277H152.757V34.7538H149.269V57.7277ZM143.762 44.3109C142.844 43.392 141.376 42.473 139.54 42.473C135.685 42.473 132.014 45.9651 132.014 50.376C132.014 54.787 135.502 58.0952 139.54 58.0952C141.376 58.0952 142.844 57.1763 143.579 56.2573H143.762V57.3601C143.762 60.3007 142.11 61.9548 139.54 61.9548C137.521 61.9548 136.052 60.4845 135.685 59.198L132.748 60.4845C133.666 62.5062 135.869 65.0793 139.724 65.0793C143.762 65.0793 147.067 62.69 147.067 56.9925V43.0244H143.762V44.3109ZM139.724 55.1546C137.337 55.1546 135.318 53.1329 135.318 50.376C135.318 47.6192 137.337 45.5975 139.724 45.5975C142.11 45.5975 143.946 47.6192 143.946 50.376C143.946 53.1329 142.11 55.1546 139.724 55.1546ZM184.516 34.7538H176.255V57.7277H179.743V49.0895H184.516C188.371 49.0895 192.042 46.3326 192.042 41.9217C192.042 37.5107 188.371 34.7538 184.516 34.7538ZM184.699 45.7813H179.743V37.8783H184.699C187.269 37.8783 188.738 40.0838 188.738 41.7379C188.554 43.7596 187.086 45.7813 184.699 45.7813ZM205.81 42.473C203.24 42.473 200.67 43.5758 199.752 45.9651L202.873 47.2516C203.607 45.9651 204.709 45.5975 205.994 45.5975C207.829 45.5975 209.482 46.7002 209.665 48.5381V48.7219C209.114 48.3543 207.646 47.803 206.177 47.803C202.873 47.803 199.569 49.6409 199.569 52.9491C199.569 56.0735 202.322 58.0952 205.259 58.0952C207.646 58.0952 208.747 56.9925 209.665 55.8897H209.849V57.7277H213.153V48.9057C212.786 44.8623 209.665 42.473 205.81 42.473ZM205.443 55.1546C204.341 55.1546 202.689 54.6032 202.689 53.1329C202.689 51.295 204.709 50.7436 206.361 50.7436C207.829 50.7436 208.564 51.1112 209.482 51.4788C209.114 53.6843 207.279 55.1546 205.443 55.1546ZM224.718 43.0244L220.863 52.9491H220.68L216.641 43.0244H212.969L219.027 56.9925L215.539 64.7117H219.027L228.39 43.0244H224.718ZM193.878 57.7277H197.366V34.7538H193.878V57.7277Z" fill="white"/>
<path d="M17.1877 15.8894C16.6371 16.4387 16.27 17.3543 16.27 18.4529V58.9196C16.27 60.0182 16.6371 60.9337 17.1877 61.4831L17.3712 61.6662L40.1305 38.9609V38.7778V38.5947L17.1877 15.8894Z" fill="url(#paint0_linear)"/>
<path d="M47.6558 46.6515L40.1306 39.1441V38.7779V38.5948L47.6558 31.0874L47.8393 31.2705L56.8329 36.3975C59.4025 37.8624 59.4025 40.2428 56.8329 41.7076L47.6558 46.6515Z" fill="url(#paint1_linear)"/>
<path d="M47.8394 46.4683L40.1307 38.7778L17.1879 61.6662C18.1056 62.5818 19.3904 62.5818 21.0423 61.8493L47.8394 46.4683Z" fill="url(#paint2_linear)"/>
<path d="M47.8394 31.0873L21.0423 15.8894C19.3904 14.9739 18.1056 15.157 17.1879 16.0725L40.1307 38.7778L47.8394 31.0873Z" fill="url(#paint3_linear)"/>
<path opacity="0.2" d="M47.656 46.2852L21.0423 61.2999C19.574 62.2155 18.2892 62.0324 17.3715 61.2999L17.1879 61.483L17.3715 61.6661C18.2892 62.3986 19.574 62.5817 21.0423 61.6661L47.656 46.2852Z" fill="black"/>
<path opacity="0.12" d="M17.1869 61.2999C16.6363 60.7506 16.4527 59.8351 16.4527 58.7365V58.9196C16.4527 60.0182 16.8198 60.9337 17.3704 61.483V61.2999H17.1869Z" fill="black"/>
<path opacity="0.12" d="M56.833 41.1582L47.6559 46.2852L47.8395 46.4683L56.833 41.3413C58.1178 40.6089 58.6684 39.6934 58.6684 38.7778C58.6684 39.6934 57.9343 40.4258 56.833 41.1582Z" fill="black"/>
<path opacity="0.25" d="M21.042 16.0725L56.8327 36.3974C57.934 37.1298 58.6682 37.8622 58.6682 38.7778C58.6682 37.8622 58.1175 36.9467 56.8327 36.2143L21.042 15.8894C18.4724 14.4246 16.4534 15.7063 16.4534 18.636V18.8191C16.4534 15.8894 18.4724 14.6077 21.042 16.0725Z" fill="white"/>
<path d="M77.0466 28.1624C76.2373 28.1624 75.428 27.9599 74.6187 27.3524C73.8093 26.7449 73.4047 26.1374 73 25.1249L74.4163 24.5174C74.6187 25.1249 74.821 25.7324 75.428 26.1374C75.8327 26.5424 76.4397 26.7449 77.0466 26.7449C77.6536 26.7449 78.2606 26.5424 78.6653 26.1374C79.07 25.7324 79.4746 25.1249 79.4746 24.5174C79.4746 23.9099 79.2723 23.5049 78.6653 22.8974C78.2606 22.4924 77.6536 22.2899 76.8443 22.2899H75.8327V20.6699H76.8443C77.4513 20.6699 78.0583 20.4674 78.463 20.0624C78.8676 19.6574 79.07 19.2524 79.07 18.6449C79.07 18.0374 78.8676 17.6324 78.463 17.4299C78.0583 17.0249 77.4513 17.0249 77.0466 17.0249C76.035 17.0249 75.2257 17.6324 75.0233 18.6449L73.607 18.0374C73.8093 17.4299 74.214 16.8224 74.821 16.2149C75.428 15.6074 76.2373 15.4049 77.249 15.4049C78.2606 15.4049 79.2723 15.8099 79.8793 16.4174C80.6886 17.0249 80.891 17.8349 80.891 18.8474C80.891 20.0624 80.284 20.8724 79.2723 21.4799C79.8793 21.6824 80.284 22.0874 80.6886 22.6949C81.0933 23.3024 81.2956 23.7074 81.2956 24.5174C81.2956 25.5299 80.891 26.5424 80.0816 27.1499C79.2723 27.7574 78.2606 28.1624 77.0466 28.1624Z" fill="white" stroke="white" stroke-width="0.2" stroke-miterlimit="10"/>
<path d="M82.1049 27.7575L86.9609 15H88.7819L93.6379 27.7575H91.8169L90.6029 24.315H85.3423L83.9259 27.7575H82.1049ZM85.7469 22.8975H89.9959L87.9726 17.2275L85.7469 22.8975Z" fill="white" stroke="white" stroke-width="0.2" stroke-miterlimit="10"/>
<path d="M95.2566 27.7575V15H99.9102C100.922 15 101.731 15.405 102.541 16.0125C103.35 16.62 103.552 17.43 103.552 18.4425C103.552 19.05 103.35 19.6575 103.148 20.0625C102.743 20.4675 102.338 20.8725 101.934 21.075C102.541 21.2775 103.148 21.6825 103.552 22.0875C103.957 22.695 104.159 23.3025 104.159 23.91C104.159 24.9225 103.755 25.7325 102.945 26.5425C102.136 27.15 101.327 27.555 100.315 27.555H95.2566V27.7575ZM96.8752 20.4675H99.9102C100.517 20.4675 100.922 20.265 101.327 19.86C101.731 19.455 101.934 19.05 101.934 18.4425C101.934 18.0375 101.731 17.43 101.327 17.025C100.922 16.62 100.517 16.4175 99.9102 16.4175H96.8752V20.4675ZM96.8752 26.34H100.113C100.72 26.34 101.327 26.1375 101.731 25.7325C102.136 25.3275 102.338 24.72 102.338 24.315C102.338 23.7075 102.136 23.3025 101.731 22.8975C101.327 22.4925 100.72 22.29 100.113 22.29H96.8752V26.34Z" fill="white" stroke="white" stroke-width="0.2" stroke-miterlimit="10"/>
<path d="M104.766 27.7575L109.622 15H111.443L116.299 27.7575H114.478L113.264 24.315H108.004L106.587 27.7575H104.766ZM108.206 22.8975H112.455L110.432 17.2275L108.206 22.8975Z" fill="white" stroke="white" stroke-width="0.2" stroke-miterlimit="10"/>
<path d="M117.715 27.7575V15H119.334V20.4675H125.606V15H127.225V27.7575H125.606V22.0875H119.334V27.7575H117.715Z" fill="white" stroke="white" stroke-width="0.2" stroke-miterlimit="10"/>
<path d="M134.307 27.7575H132.688V16.62H129.046V15H137.746V16.62H134.104V27.7575H134.307Z" fill="white" stroke="white" stroke-width="0.2" stroke-miterlimit="10"/>
<path d="M137.342 27.7575L142.198 15H144.019L148.875 27.7575H147.054L145.84 24.315H140.579L139.163 27.7575H137.342ZM140.984 22.8975H145.233L143.209 17.2275L140.984 22.8975Z" fill="white" stroke="white" stroke-width="0.2" stroke-miterlimit="10"/>
<path d="M158.587 22.0875V27.7575H156.968V21.885L151.91 27.7575H149.886L155.147 21.6825L150.089 15.2025H152.112L156.968 21.2775V15.2025H158.587V21.2775L163.443 15.2025H165.466L160.205 21.6825L165.466 27.7575H163.443L158.587 22.0875Z" fill="white" stroke="white" stroke-width="0.2" stroke-miterlimit="10"/>
<path d="M176.999 15.2025V27.7575H175.38V19.86V17.43L168.906 27.7575H167.287V15H168.906V22.4925V24.9225L174.976 15H176.999V15.2025Z" fill="white" stroke="white" stroke-width="0.2" stroke-miterlimit="10"/>
<path d="M183.878 27.7575H182.26V16.62H178.618V15H187.318V16.62H183.676V27.7575H183.878Z" fill="white" stroke="white" stroke-width="0.2" stroke-miterlimit="10"/>
<path d="M199.053 15.2025V27.7575H197.434V19.86V17.43L190.96 27.7575H189.341V15H190.96V22.4925V24.9225L197.03 15H199.053V15.2025Z" fill="white" stroke="white" stroke-width="0.2" stroke-miterlimit="10"/>
<path d="M208.765 28.1624C207.956 28.1624 207.146 27.9599 206.337 27.3524C205.528 26.7449 205.123 26.1374 204.718 25.1249L206.135 24.5174C206.337 25.1249 206.539 25.7324 207.146 26.1374C207.551 26.5424 208.158 26.7449 208.765 26.7449C209.372 26.7449 209.979 26.5424 210.384 26.1374C210.788 25.7324 211.193 25.1249 211.193 24.5174C211.193 23.9099 210.991 23.5049 210.384 22.8974C209.979 22.4924 209.372 22.2899 208.563 22.2899H207.551V20.6699H208.563C209.17 20.6699 209.777 20.4674 210.181 20.0624C210.586 19.6574 210.788 19.2524 210.788 18.6449C210.788 18.0374 210.586 17.6324 210.181 17.4299C209.777 17.0249 209.17 17.0249 208.765 17.0249C207.753 17.0249 206.944 17.6324 206.742 18.6449L205.325 18.0374C205.528 17.4299 205.932 16.8224 206.539 16.2149C207.146 15.6074 207.956 15.4049 208.967 15.4049C209.979 15.4049 210.991 15.8099 211.598 16.4174C212.407 17.0249 212.609 17.8349 212.609 18.8474C212.609 20.0624 212.002 20.8724 210.991 21.4799C211.598 21.6824 212.002 22.0874 212.407 22.6949C212.812 23.3024 213.014 23.7074 213.014 24.5174C213.014 25.5299 212.609 26.5424 211.8 27.1499C210.788 27.7574 209.979 28.1624 208.765 28.1624Z" fill="white" stroke="white" stroke-width="0.2" stroke-miterlimit="10"/>
<defs>
<linearGradient id="paint0_linear" x1="38.111" y1="18.1045" x2="7.38129" y2="48.9072" gradientUnits="userSpaceOnUse">
<stop stop-color="#00A0FF"/>
<stop offset="0.00657445" stop-color="#00A1FF"/>
<stop offset="0.2601" stop-color="#00BEFF"/>
<stop offset="0.5122" stop-color="#00D2FF"/>
<stop offset="0.7604" stop-color="#00DFFF"/>
<stop offset="1" stop-color="#00E3FF"/>
</linearGradient>
<linearGradient id="paint1_linear" x1="60.1998" y1="38.7805" x2="15.7883" y2="38.7805" gradientUnits="userSpaceOnUse">
<stop stop-color="#FFE000"/>
<stop offset="0.4087" stop-color="#FFBD00"/>
<stop offset="0.7754" stop-color="#FFA500"/>
<stop offset="1" stop-color="#FF9C00"/>
</linearGradient>
<linearGradient id="paint2_linear" x1="43.6675" y1="42.9822" x2="1.99557" y2="84.7531" gradientUnits="userSpaceOnUse">
<stop stop-color="#FF3A44"/>
<stop offset="1" stop-color="#C31162"/>
</linearGradient>
<linearGradient id="paint3_linear" x1="11.4931" y1="2.479" x2="30.1015" y2="21.1314" gradientUnits="userSpaceOnUse">
<stop stop-color="#32A071"/>
<stop offset="0.0685" stop-color="#2DA771"/>
<stop offset="0.4762" stop-color="#15CF74"/>
<stop offset="0.8009" stop-color="#06E775"/>
<stop offset="1" stop-color="#00F076"/>
</linearGradient>
</defs>
</svg>
