<svg width="27" height="27" viewBox="0 0 27 27" fill="none" xmlns="http://www.w3.org/2000/svg">
<path fill-rule="evenodd" clip-rule="evenodd" d="M0 7.8772C0 3.5347 3.53143 0 7.8728 0H19.1228C23.4653 0 27 3.53143 27 7.8728V19.1228C27 23.4653 23.4686 27 19.1272 27H7.8772C3.5347 27 0 23.4686 0 19.1272V7.8772ZM22.5 5.625C22.5 5.004 21.996 4.5 21.375 4.5C20.754 4.5 20.25 5.004 20.25 5.625C20.25 6.246 20.754 6.75 21.375 6.75C21.996 6.75 22.5 6.246 22.5 5.625ZM13.5 6.75C17.2226 6.75 20.25 9.77738 20.25 13.5C20.25 17.2226 17.2226 20.25 13.5 20.25C9.77738 20.25 6.75 17.2226 6.75 13.5C6.75 9.77738 9.77738 6.75 13.5 6.75ZM9 13.5C9 11.0147 11.0147 9 13.5 9C15.9853 9 18 11.0147 18 13.5C18 15.9853 15.9853 18 13.5 18C11.0147 18 9 15.9853 9 13.5Z" fill="white"/>
</svg>
