<svg width="48" height="27" viewBox="0 0 48 27" fill="none" xmlns="http://www.w3.org/2000/svg">
<path d="M13.5748 26.9999C6.10353 27.0204 0.031206 20.9897 0.000119033 13.5256C-0.030968 6.08194 6.031 0.0205297 13.5126 5.19962e-05C21.0357 -0.0204257 27.1183 6.01027 27.1183 13.4949C27.1287 20.9488 21.0771 26.9795 13.5748 26.9999Z" fill="white"/>
<path d="M28.1835 12.9127C28.2747 9.89323 28.7106 7.08875 30.0283 4.50945C30.5148 3.5678 31.123 2.64662 31.8731 1.90968C33.8497 -0.0555013 36.2723 0.108264 38.1171 2.2065C39.7085 4.02839 40.5092 6.21875 40.9856 8.5524C41.7661 12.4214 41.6343 16.2494 40.4383 20.016C39.9112 21.6741 39.1712 23.2196 37.9346 24.4581C35.8769 26.5256 33.424 26.4233 31.4981 24.2022C30.0688 22.5543 29.3086 20.5789 28.8018 18.4909C28.3254 16.6076 28.1632 14.6936 28.1835 12.9127Z" fill="white"/>
<path d="M43.0706 13.4995C43.081 10.3295 43.4318 7.53784 43.8652 5.24724C44.1025 4.34736 44.4018 3.652 44.6598 3.15093C45.1035 2.2715 45.3408 2.10789 45.5266 2.11811C45.8052 2.11811 46.0322 2.43512 46.1354 2.66009C46.5791 3.64177 46.9816 4.68481 47.1673 5.73808C48.1063 11.1783 48.1167 16.6287 47.0022 22.0484C46.8474 22.8256 46.5378 23.5823 46.1767 24.2879C45.9806 24.6764 45.7433 24.8707 45.4956 24.881C45.3821 24.8912 45.1138 24.8605 44.7114 24.2879C43.9787 23.2346 43.7207 21.6087 43.6279 20.6883C43.2977 18.6329 43.0603 16.2094 43.0706 13.4995Z" fill="white"/>
</svg>
