<svg width="27" height="25" viewBox="0 0 27 25" fill="none" xmlns="http://www.w3.org/2000/svg">
<path fill-rule="evenodd" clip-rule="evenodd" d="M24.5404 0.191382C25.2878 -0.108686 26.0107 -0.0528455 26.4709 0.337427C26.8011 0.616632 27.1422 1.18486 26.8968 2.30168L22.8738 23.2126C22.84 23.2997 22.5173 24.0686 21.7103 24.4C21.4735 24.4969 21.2256 24.5454 20.9672 24.5454C20.6328 24.5454 20.2824 24.4644 19.9167 24.3024L19.7884 24.2257L14.4025 20.0253L11.0662 23.1199C10.7692 23.3531 10.3102 23.5157 9.84875 23.3377C9.32286 23.1776 9.02279 22.3995 8.8387 21.8073C8.56624 20.9305 7.40804 17.0743 6.94672 15.5384C6.90828 15.4104 6.87468 15.2985 6.84684 15.2058L1.38977 13.3373C1.25354 13.2876 0.137951 12.8568 0.0103145 11.8167C-0.132663 10.6631 1.25538 10.1452 1.41431 10.0899C2.28813 9.71379 23.7531 0.506791 24.5392 0.191382H24.5404ZM9.81868 20.8623L11.6596 15.9532L22.0914 4.29415L7.97777 14.726L9.81868 20.8623Z" fill="white"/>
</svg>
