<svg width="27" height="25" viewBox="0 0 27 25" fill="none" xmlns="http://www.w3.org/2000/svg">
<path fill-rule="evenodd" clip-rule="evenodd" d="M24.5399 0.192664C25.2873 -0.107405 26.0102 -0.0515637 26.4704 0.338709C26.8006 0.617914 27.1418 1.18614 26.8963 2.30296L22.8733 23.2138C22.8396 23.301 22.5168 24.0699 21.7098 24.4012C21.473 24.4982 21.2251 24.5467 20.9667 24.5467C20.6323 24.5467 20.2819 24.4657 19.9162 24.3037L19.7879 24.227L14.4021 20.0266L11.0657 23.1212C10.7687 23.3544 10.3097 23.517 9.84826 23.339C9.32237 23.1789 9.0223 22.4008 8.83821 21.8086C8.56576 20.9318 7.40756 17.0756 6.94624 15.5397C6.9078 15.4117 6.8742 15.2998 6.84635 15.2071L1.38928 13.3386C1.25305 13.2889 0.137463 12.8581 0.00982625 11.818C-0.133151 10.6644 1.25489 10.1465 1.41383 10.0912C2.28764 9.71507 23.7526 0.508073 24.5387 0.192664H24.5399ZM9.81819 20.8636L11.6591 15.9545L22.0909 4.29544L7.97728 14.7273L9.81819 20.8636Z" fill="#000"/>
</svg>
