<svg width="27" height="27" viewBox="0 0 27 27" fill="none" xmlns="http://www.w3.org/2000/svg">
<path d="M23.7857 0H3.21429C1.44193 0 0 1.44193 0 3.21429V23.7857C0 25.5581 1.44193 27 3.21429 27H23.7857C25.5581 27 27 25.5581 27 23.7857V3.21429C27 1.44193 25.5581 0 23.7857 0ZM21.2181 11.7791C21.0722 11.7926 20.9244 11.8016 20.7746 11.8016C19.0884 11.8016 17.6066 10.9344 16.7445 9.62357C16.7445 13.0622 16.7445 16.9746 16.7445 17.0402C16.7445 20.0674 14.2901 22.5219 11.2629 22.5219C8.23564 22.5219 5.78121 20.0674 5.78121 17.0402C5.78121 14.013 8.23564 11.5586 11.2629 11.5586C11.3773 11.5586 11.4891 11.5689 11.6016 11.5759V14.2772C11.4891 14.2637 11.3786 14.2431 11.2629 14.2431C9.71743 14.2431 8.46514 15.4954 8.46514 17.0409C8.46514 18.5863 9.71743 19.8386 11.2629 19.8386C12.8083 19.8386 14.1731 18.621 14.1731 17.0756C14.1731 17.0145 14.2001 4.47943 14.2001 4.47943H16.7818C17.0248 6.78793 18.8884 8.60979 21.2181 8.77693V11.7791Z" fill="white"/>
</svg>
