<svg width="30" height="31" viewBox="0 0 30 31" fill="none" xmlns="http://www.w3.org/2000/svg">
<path d="M25.7857 3H5.21429C3.44193 3 2 4.44193 2 6.21429V26.7857C2 28.5581 3.44193 30 5.21429 30H25.7857C27.5581 30 29 28.5581 29 26.7857V6.21429C29 4.44193 27.5581 3 25.7857 3ZM23.2181 14.7791C23.0722 14.7926 22.9244 14.8016 22.7746 14.8016C21.0884 14.8016 19.6066 13.9344 18.7445 12.6236C18.7445 16.0622 18.7445 19.9746 18.7445 20.0402C18.7445 23.0674 16.2901 25.5219 13.2629 25.5219C10.2356 25.5219 7.78121 23.0674 7.78121 20.0402C7.78121 17.013 10.2356 14.5586 13.2629 14.5586C13.3773 14.5586 13.4891 14.5689 13.6016 14.5759V17.2772C13.4891 17.2637 13.3786 17.2431 13.2629 17.2431C11.7174 17.2431 10.4651 18.4954 10.4651 20.0409C10.4651 21.5863 11.7174 22.8386 13.2629 22.8386C14.8083 22.8386 16.1731 21.621 16.1731 20.0756C16.1731 20.0145 16.2001 7.47943 16.2001 7.47943H18.7818C19.0248 9.78793 20.8884 11.6098 23.2181 11.7769V14.7791Z" fill="white"/>
</svg>
