<svg width="27" height="23" viewBox="0 0 27 23" fill="none" xmlns="http://www.w3.org/2000/svg">
<path d="M27 2.87842C26.0068 3.31787 24.939 3.6167 23.8184 3.74853C24.9609 3.06299 25.8398 1.97754 26.2529 0.685547C25.1851 1.31836 23.9985 1.77978 22.7373 2.03027C21.7266 0.953613 20.2852 0.276855 18.6943 0.276855C15.6357 0.276855 13.1528 2.75977 13.1528 5.81836C13.1528 6.25342 13.2012 6.67529 13.2979 7.07959C8.69238 6.85107 4.60986 4.64502 1.88086 1.29199C1.40186 2.10937 1.12939 3.06299 1.12939 4.07812C1.12939 5.99853 2.10498 7.69482 3.59473 8.68799C2.68506 8.65723 1.83252 8.41113 1.08545 7.99365C1.08545 8.02002 1.08545 8.04199 1.08545 8.06396C1.08545 10.749 2.99268 12.9902 5.52832 13.4956C5.0625 13.623 4.57471 13.6934 4.06934 13.6934C3.71338 13.6934 3.36182 13.6582 3.02783 13.5923C3.73096 15.7939 5.77881 17.3936 8.2002 17.4419C6.30615 18.9272 3.91553 19.8105 1.32275 19.8105C0.874512 19.8105 0.435059 19.7842 0 19.7314C2.45215 21.3047 5.36133 22.2231 8.49023 22.2231C18.6812 22.2231 24.2534 13.7812 24.2534 6.45996C24.2534 6.22266 24.2446 5.98096 24.2358 5.74365C25.3169 4.96143 26.2573 3.98584 27 2.87842Z" fill="#000"/>
</svg>
