<svg width="27" height="22" viewBox="0 0 27 22" fill="none" xmlns="http://www.w3.org/2000/svg">
<path d="M27 2.60156C26.0068 3.04102 24.939 3.33984 23.8184 3.47168C24.9609 2.78613 25.8398 1.70068 26.2529 0.408691C25.1851 1.0415 23.9985 1.50293 22.7373 1.75342C21.7266 0.676757 20.2852 0 18.6943 0C15.6357 0 13.1528 2.48291 13.1528 5.5415C13.1528 5.97656 13.2012 6.39844 13.2979 6.80273C8.69238 6.57422 4.60986 4.36816 1.88086 1.01514C1.40186 1.83252 1.12939 2.78613 1.12939 3.80127C1.12939 5.72168 2.10498 7.41797 3.59473 8.41113C2.68506 8.38037 1.83252 8.13428 1.08545 7.7168C1.08545 7.74316 1.08545 7.76514 1.08545 7.78711C1.08545 10.4722 2.99268 12.7134 5.52832 13.2188C5.0625 13.3462 4.57471 13.4165 4.06934 13.4165C3.71338 13.4165 3.36182 13.3813 3.02783 13.3154C3.73096 15.5171 5.77881 17.1167 8.2002 17.165C6.30615 18.6504 3.91553 19.5337 1.32275 19.5337C0.874512 19.5337 0.435059 19.5073 0 19.4546C2.45215 21.0278 5.36133 21.9463 8.49023 21.9463C18.6812 21.9463 24.2534 13.5044 24.2534 6.18311C24.2534 5.9458 24.2446 5.7041 24.2358 5.4668C25.3169 4.68457 26.2573 3.70898 27 2.60156Z" fill="white"/>
</svg>
