<svg width="27" height="27" viewBox="0 0 27 27" fill="none" xmlns="http://www.w3.org/2000/svg">
<path d="M13.5 0C6.04395 0 0 6.04395 0 13.5C0 20.9561 6.04395 27 13.5 27C20.9561 27 27 20.9561 27 13.5C27 6.04395 20.9561 0 13.5 0ZM20.9452 18.9H19.1781C18.5085 18.9 18.2966 18.2372 17.1288 16.875C16.1163 15.6938 15.5925 15.525 15.3347 15.525C14.9729 15.525 14.85 15.6141 14.85 16.1555V18.1616C14.85 18.6111 14.7339 18.9 13.6012 18.9C11.7315 18.9 9.61875 17.6337 8.0163 15.44C5.805 12.4146 5.4 9.78345 5.4 9.29745C5.4 9.02745 5.48505 8.775 6.00075 8.775H7.7841C8.23095 8.775 8.4024 8.97345 8.57385 9.4959C9.3663 12.15 10.5476 14.175 11.1483 14.175C11.3711 14.175 11.475 14.067 11.475 13.473V11.0268C11.4061 9.7659 10.8 9.6579 10.8 9.207C10.8 8.98965 10.9431 8.775 11.2185 8.775H14.3559C14.7339 8.775 14.85 8.991 14.85 9.45945V12.96C14.85 13.3556 15.1524 13.5 15.2712 13.5C15.494 13.5 15.7032 13.5108 16.115 13.0775C17.384 11.5817 18.4855 9.315 18.4855 9.315C18.607 9.045 18.8123 8.775 19.2591 8.775H21.0263C21.4218 8.775 21.5892 8.95185 21.6 9.19755C21.604 9.2826 21.5892 9.3771 21.5581 9.47835C21.3354 10.5583 19.0512 13.7659 19.0688 13.7659C18.9715 13.932 18.9067 14.0508 18.9 14.1764C18.8932 14.2952 18.9419 14.4193 19.0688 14.5949C19.2564 14.8649 19.6668 15.3617 20.0813 15.8639C20.8305 16.7697 21.4312 17.7201 21.5622 18.1089C21.5906 18.2142 21.6027 18.3101 21.6 18.3951C21.5905 18.7272 21.3543 18.9 20.9452 18.9Z" fill="white"/>
</svg>
